<mxfile host="app.diagrams.net" modified="2022-11-30T15:35:41.824Z" agent="5.0 (Windows NT 10.0; Win64; x64) AppleWebKit/537.36 (KHTML, like Gecko) Chrome/98.0.4758.81 Safari/537.36" etag="BHr3hIr6xccLdU6kJLjt" version="20.6.0" type="github">
  <diagram name="Page-1" id="52a04d89-c75d-2922-d76d-85b35f80e030">
    <mxGraphModel dx="1182" dy="764" grid="1" gridSize="10" guides="1" tooltips="1" connect="1" arrows="1" fold="1" page="1" pageScale="1" pageWidth="3000" pageHeight="3000" background="none" math="0" shadow="0">
      <root>
        <mxCell id="0" />
        <mxCell id="1" parent="0" />
        <mxCell id="QQYpSkaSlUF55Vdtk0ez-41" style="edgeStyle=orthogonalEdgeStyle;rounded=0;orthogonalLoop=1;jettySize=auto;html=1;exitX=1;exitY=0.5;exitDx=0;exitDy=0;entryX=-0.004;entryY=0.2;entryDx=0;entryDy=0;entryPerimeter=0;" parent="1" target="QQYpSkaSlUF55Vdtk0ez-23" edge="1">
          <mxGeometry relative="1" as="geometry">
            <mxPoint x="181" y="126" as="sourcePoint" />
          </mxGeometry>
        </mxCell>
        <mxCell id="17472293e6e8944d-30" value="设备" style="whiteSpace=wrap;html=1;rounded=0;shadow=0;comic=0;labelBackgroundColor=none;strokeWidth=1;fontFamily=Verdana;fontSize=12;align=center;" parent="1" vertex="1">
          <mxGeometry x="60" y="101" width="120" height="50" as="geometry" />
        </mxCell>
        <mxCell id="QQYpSkaSlUF55Vdtk0ez-166" style="edgeStyle=orthogonalEdgeStyle;rounded=0;orthogonalLoop=1;jettySize=auto;html=1;entryX=0.5;entryY=0;entryDx=0;entryDy=0;" parent="1" source="1fdf3b25b50cf41e-1" target="QQYpSkaSlUF55Vdtk0ez-161" edge="1">
          <mxGeometry relative="1" as="geometry" />
        </mxCell>
        <mxCell id="QQYpSkaSlUF55Vdtk0ez-167" style="edgeStyle=orthogonalEdgeStyle;rounded=0;orthogonalLoop=1;jettySize=auto;html=1;" parent="1" source="1fdf3b25b50cf41e-1" target="1fdf3b25b50cf41e-7" edge="1">
          <mxGeometry relative="1" as="geometry" />
        </mxCell>
        <mxCell id="QQYpSkaSlUF55Vdtk0ez-168" style="edgeStyle=orthogonalEdgeStyle;rounded=0;orthogonalLoop=1;jettySize=auto;html=1;entryX=0.5;entryY=0;entryDx=0;entryDy=0;" parent="1" source="1fdf3b25b50cf41e-1" target="1fdf3b25b50cf41e-9" edge="1">
          <mxGeometry relative="1" as="geometry">
            <Array as="points">
              <mxPoint x="825" y="350" />
            </Array>
          </mxGeometry>
        </mxCell>
        <mxCell id="1fdf3b25b50cf41e-1" value="数据采集模块" style="swimlane;html=1;fontStyle=0;childLayout=stackLayout;horizontal=1;startSize=26;fillColor=#e0e0e0;horizontalStack=0;resizeParent=1;resizeLast=0;collapsible=1;marginBottom=0;swimlaneFillColor=#ffffff;align=center;rounded=1;shadow=0;comic=0;labelBackgroundColor=none;strokeWidth=1;fontFamily=Verdana;fontSize=12" parent="1" vertex="1">
          <mxGeometry x="605" y="310" width="140" height="52" as="geometry" />
        </mxCell>
        <mxCell id="1fdf3b25b50cf41e-2" value="data-collect-server" style="text;html=1;strokeColor=none;fillColor=none;spacingLeft=4;spacingRight=4;whiteSpace=wrap;overflow=hidden;rotatable=0;points=[[0,0.5],[1,0.5]];portConstraint=eastwest;align=center;" parent="1fdf3b25b50cf41e-1" vertex="1">
          <mxGeometry y="26" width="140" height="26" as="geometry" />
        </mxCell>
        <mxCell id="1fdf3b25b50cf41e-7" value="数据订阅推送模块" style="swimlane;html=1;fontStyle=0;childLayout=stackLayout;horizontal=1;startSize=26;fillColor=#e0e0e0;horizontalStack=0;resizeParent=1;resizeLast=0;collapsible=1;marginBottom=0;swimlaneFillColor=#ffffff;align=center;rounded=1;shadow=0;comic=0;labelBackgroundColor=none;strokeWidth=1;fontFamily=Verdana;fontSize=12" parent="1" vertex="1">
          <mxGeometry x="455" y="435" width="140" height="52" as="geometry" />
        </mxCell>
        <mxCell id="1fdf3b25b50cf41e-8" value="subscrip-server" style="text;html=1;strokeColor=none;fillColor=none;spacingLeft=4;spacingRight=4;whiteSpace=wrap;overflow=hidden;rotatable=0;points=[[0,0.5],[1,0.5]];portConstraint=eastwest;align=center;" parent="1fdf3b25b50cf41e-7" vertex="1">
          <mxGeometry y="26" width="140" height="26" as="geometry" />
        </mxCell>
        <mxCell id="QQYpSkaSlUF55Vdtk0ez-169" style="edgeStyle=orthogonalEdgeStyle;rounded=0;orthogonalLoop=1;jettySize=auto;html=1;entryX=0.768;entryY=1.038;entryDx=0;entryDy=0;entryPerimeter=0;" parent="1" source="1fdf3b25b50cf41e-9" target="1fdf3b25b50cf41e-2" edge="1">
          <mxGeometry relative="1" as="geometry">
            <Array as="points">
              <mxPoint x="795" y="390" />
              <mxPoint x="713" y="390" />
            </Array>
          </mxGeometry>
        </mxCell>
        <mxCell id="1fdf3b25b50cf41e-9" value="数据分析模块" style="swimlane;html=1;fontStyle=0;childLayout=stackLayout;horizontal=1;startSize=26;fillColor=#e0e0e0;horizontalStack=0;resizeParent=1;resizeLast=0;collapsible=1;marginBottom=0;swimlaneFillColor=#ffffff;align=center;rounded=1;shadow=0;comic=0;labelBackgroundColor=none;strokeWidth=1;fontFamily=Verdana;fontSize=12" parent="1" vertex="1">
          <mxGeometry x="755" y="435" width="140" height="52" as="geometry" />
        </mxCell>
        <mxCell id="1fdf3b25b50cf41e-10" value="analysis-server" style="text;html=1;strokeColor=none;fillColor=none;spacingLeft=4;spacingRight=4;whiteSpace=wrap;overflow=hidden;rotatable=0;points=[[0,0.5],[1,0.5]];portConstraint=eastwest;align=center;" parent="1fdf3b25b50cf41e-9" vertex="1">
          <mxGeometry y="26" width="140" height="26" as="geometry" />
        </mxCell>
        <mxCell id="QQYpSkaSlUF55Vdtk0ez-42" style="edgeStyle=orthogonalEdgeStyle;rounded=0;orthogonalLoop=1;jettySize=auto;html=1;entryX=-0.004;entryY=0.2;entryDx=0;entryDy=0;entryPerimeter=0;" parent="1" target="QQYpSkaSlUF55Vdtk0ez-38" edge="1">
          <mxGeometry relative="1" as="geometry">
            <mxPoint x="181" y="194.0000000000001" as="sourcePoint" />
            <Array as="points">
              <mxPoint x="290" y="194" />
              <mxPoint x="290" y="220" />
            </Array>
          </mxGeometry>
        </mxCell>
        <mxCell id="QQYpSkaSlUF55Vdtk0ez-1" value="外部系统" style="whiteSpace=wrap;html=1;rounded=0;shadow=0;comic=0;labelBackgroundColor=none;strokeWidth=1;fontFamily=Verdana;fontSize=12;align=center;" parent="1" vertex="1">
          <mxGeometry x="60" y="169" width="120" height="50" as="geometry" />
        </mxCell>
        <mxCell id="QQYpSkaSlUF55Vdtk0ez-165" style="edgeStyle=orthogonalEdgeStyle;rounded=0;orthogonalLoop=1;jettySize=auto;html=1;entryX=0.5;entryY=0;entryDx=0;entryDy=0;" parent="1" source="QQYpSkaSlUF55Vdtk0ez-13" target="1fdf3b25b50cf41e-1" edge="1">
          <mxGeometry relative="1" as="geometry" />
        </mxCell>
        <mxCell id="QQYpSkaSlUF55Vdtk0ez-13" value="数据网络模块" style="shape=table;startSize=30;container=1;collapsible=1;childLayout=tableLayout;fixedRows=1;rowLines=0;fontStyle=1;align=center;resizeLast=1;fillColor=#E0E0E0;rounded=1;" parent="1" vertex="1">
          <mxGeometry x="405" y="30" width="540" height="230" as="geometry" />
        </mxCell>
        <mxCell id="QQYpSkaSlUF55Vdtk0ez-17" value="" style="shape=tableRow;horizontal=0;startSize=0;swimlaneHead=0;swimlaneBody=0;fillColor=none;collapsible=0;dropTarget=0;points=[[0,0.5],[1,0.5]];portConstraint=eastwest;top=0;left=0;right=0;bottom=1;" parent="QQYpSkaSlUF55Vdtk0ez-13" vertex="1">
          <mxGeometry y="30" width="540" height="30" as="geometry" />
        </mxCell>
        <mxCell id="QQYpSkaSlUF55Vdtk0ez-227" value="防火墙" style="shape=partialRectangle;connectable=0;fillColor=#E0E0E0;top=1;left=1;bottom=1;right=1;fontStyle=1;overflow=hidden;" parent="QQYpSkaSlUF55Vdtk0ez-17" vertex="1">
          <mxGeometry width="140" height="30" as="geometry">
            <mxRectangle width="140" height="30" as="alternateBounds" />
          </mxGeometry>
        </mxCell>
        <mxCell id="QQYpSkaSlUF55Vdtk0ez-233" value="代理" style="shape=partialRectangle;connectable=0;fillColor=#E0E0E0;top=1;left=1;bottom=1;right=1;fontStyle=1;overflow=hidden;" parent="QQYpSkaSlUF55Vdtk0ez-17" vertex="1">
          <mxGeometry x="140" width="140" height="30" as="geometry">
            <mxRectangle width="140" height="30" as="alternateBounds" />
          </mxGeometry>
        </mxCell>
        <mxCell id="QQYpSkaSlUF55Vdtk0ez-18" value="网络入口" style="shape=partialRectangle;connectable=0;fillColor=#E0E0E0;top=1;left=1;bottom=1;right=1;fontStyle=1;overflow=hidden;" parent="QQYpSkaSlUF55Vdtk0ez-17" vertex="1">
          <mxGeometry x="280" width="140" height="30" as="geometry">
            <mxRectangle width="140" height="30" as="alternateBounds" />
          </mxGeometry>
        </mxCell>
        <mxCell id="QQYpSkaSlUF55Vdtk0ez-19" value="数据处理模块" style="shape=partialRectangle;connectable=0;fillColor=#E0E0E0;top=1;left=1;bottom=1;right=1;align=left;spacingLeft=6;fontStyle=5;overflow=hidden;" parent="QQYpSkaSlUF55Vdtk0ez-17" vertex="1">
          <mxGeometry x="420" width="120" height="30" as="geometry">
            <mxRectangle width="120" height="30" as="alternateBounds" />
          </mxGeometry>
        </mxCell>
        <mxCell id="QQYpSkaSlUF55Vdtk0ez-26" style="shape=tableRow;horizontal=0;startSize=0;swimlaneHead=0;swimlaneBody=0;fillColor=none;collapsible=0;dropTarget=0;points=[[0,0.5],[1,0.5]];portConstraint=eastwest;top=0;left=0;right=0;bottom=0;" parent="QQYpSkaSlUF55Vdtk0ez-13" vertex="1">
          <mxGeometry y="60" width="540" height="30" as="geometry" />
        </mxCell>
        <mxCell id="QQYpSkaSlUF55Vdtk0ez-228" style="shape=partialRectangle;connectable=0;fillColor=none;top=0;left=0;bottom=0;right=0;editable=1;overflow=hidden;align=left;spacingLeft=2;" parent="QQYpSkaSlUF55Vdtk0ez-26" vertex="1">
          <mxGeometry width="140" height="30" as="geometry">
            <mxRectangle width="140" height="30" as="alternateBounds" />
          </mxGeometry>
        </mxCell>
        <mxCell id="QQYpSkaSlUF55Vdtk0ez-234" style="shape=partialRectangle;connectable=0;fillColor=none;top=0;left=0;bottom=0;right=0;editable=1;overflow=hidden;align=center;spacingLeft=2;" parent="QQYpSkaSlUF55Vdtk0ez-26" vertex="1">
          <mxGeometry x="140" width="140" height="30" as="geometry">
            <mxRectangle width="140" height="30" as="alternateBounds" />
          </mxGeometry>
        </mxCell>
        <mxCell id="QQYpSkaSlUF55Vdtk0ez-27" value="lorawan：socket udp" style="shape=partialRectangle;connectable=0;fillColor=none;top=0;left=0;bottom=0;right=0;editable=1;overflow=hidden;align=center;spacingLeft=2;" parent="QQYpSkaSlUF55Vdtk0ez-26" vertex="1">
          <mxGeometry x="280" width="140" height="30" as="geometry">
            <mxRectangle width="140" height="30" as="alternateBounds" />
          </mxGeometry>
        </mxCell>
        <mxCell id="QQYpSkaSlUF55Vdtk0ez-28" value="lorawan-processor" style="shape=partialRectangle;connectable=0;fillColor=none;top=0;left=0;bottom=0;right=0;align=left;spacingLeft=6;overflow=hidden;" parent="QQYpSkaSlUF55Vdtk0ez-26" vertex="1">
          <mxGeometry x="420" width="120" height="30" as="geometry">
            <mxRectangle width="120" height="30" as="alternateBounds" />
          </mxGeometry>
        </mxCell>
        <mxCell id="QQYpSkaSlUF55Vdtk0ez-23" value="" style="shape=tableRow;horizontal=0;startSize=0;swimlaneHead=0;swimlaneBody=0;fillColor=none;collapsible=0;dropTarget=0;points=[[0,0.5],[1,0.5]];portConstraint=eastwest;top=0;left=0;right=0;bottom=0;" parent="QQYpSkaSlUF55Vdtk0ez-13" vertex="1">
          <mxGeometry y="90" width="540" height="30" as="geometry" />
        </mxCell>
        <mxCell id="QQYpSkaSlUF55Vdtk0ez-229" style="shape=partialRectangle;connectable=0;fillColor=none;top=0;left=0;bottom=0;right=0;editable=1;overflow=hidden;align=left;spacingLeft=2;" parent="QQYpSkaSlUF55Vdtk0ez-23" vertex="1">
          <mxGeometry width="140" height="30" as="geometry">
            <mxRectangle width="140" height="30" as="alternateBounds" />
          </mxGeometry>
        </mxCell>
        <mxCell id="QQYpSkaSlUF55Vdtk0ez-235" style="shape=partialRectangle;connectable=0;fillColor=none;top=0;left=0;bottom=0;right=0;editable=1;overflow=hidden;align=center;spacingLeft=2;" parent="QQYpSkaSlUF55Vdtk0ez-23" vertex="1">
          <mxGeometry x="140" width="140" height="30" as="geometry">
            <mxRectangle width="140" height="30" as="alternateBounds" />
          </mxGeometry>
        </mxCell>
        <mxCell id="QQYpSkaSlUF55Vdtk0ez-24" value="hj212：socket tcp" style="shape=partialRectangle;connectable=0;fillColor=none;top=0;left=0;bottom=0;right=0;editable=1;overflow=hidden;align=center;spacingLeft=2;" parent="QQYpSkaSlUF55Vdtk0ez-23" vertex="1">
          <mxGeometry x="280" width="140" height="30" as="geometry">
            <mxRectangle width="140" height="30" as="alternateBounds" />
          </mxGeometry>
        </mxCell>
        <mxCell id="QQYpSkaSlUF55Vdtk0ez-25" value="hj212-processor" style="shape=partialRectangle;connectable=0;fillColor=none;top=0;left=0;bottom=0;right=0;align=left;spacingLeft=6;overflow=hidden;" parent="QQYpSkaSlUF55Vdtk0ez-23" vertex="1">
          <mxGeometry x="420" width="120" height="30" as="geometry">
            <mxRectangle width="120" height="30" as="alternateBounds" />
          </mxGeometry>
        </mxCell>
        <mxCell id="QQYpSkaSlUF55Vdtk0ez-32" style="shape=tableRow;horizontal=0;startSize=0;swimlaneHead=0;swimlaneBody=0;fillColor=none;collapsible=0;dropTarget=0;points=[[0,0.5],[1,0.5]];portConstraint=eastwest;top=0;left=0;right=0;bottom=0;" parent="QQYpSkaSlUF55Vdtk0ez-13" vertex="1">
          <mxGeometry y="120" width="540" height="30" as="geometry" />
        </mxCell>
        <mxCell id="QQYpSkaSlUF55Vdtk0ez-230" value="80端口" style="shape=partialRectangle;connectable=0;fillColor=none;top=1;left=0;bottom=0;right=0;editable=1;overflow=hidden;align=center;spacingLeft=2;rowspan=3;colspan=1;" parent="QQYpSkaSlUF55Vdtk0ez-32" vertex="1">
          <mxGeometry width="140" height="110" as="geometry">
            <mxRectangle width="140" height="30" as="alternateBounds" />
          </mxGeometry>
        </mxCell>
        <mxCell id="QQYpSkaSlUF55Vdtk0ez-236" value="nginx-node1" style="shape=partialRectangle;connectable=0;fillColor=none;top=1;left=0;bottom=0;right=0;editable=1;overflow=hidden;align=center;spacingLeft=2;" parent="QQYpSkaSlUF55Vdtk0ez-32" vertex="1">
          <mxGeometry x="140" width="140" height="30" as="geometry">
            <mxRectangle width="140" height="30" as="alternateBounds" />
          </mxGeometry>
        </mxCell>
        <mxCell id="QQYpSkaSlUF55Vdtk0ez-33" value="电信nb：http" style="shape=partialRectangle;connectable=0;fillColor=none;top=1;left=0;bottom=0;right=0;editable=1;overflow=hidden;align=center;spacingLeft=2;" parent="QQYpSkaSlUF55Vdtk0ez-32" vertex="1">
          <mxGeometry x="280" width="140" height="30" as="geometry">
            <mxRectangle width="140" height="30" as="alternateBounds" />
          </mxGeometry>
        </mxCell>
        <mxCell id="QQYpSkaSlUF55Vdtk0ez-34" value="nb-processor" style="shape=partialRectangle;connectable=0;fillColor=none;top=0;left=0;bottom=0;right=0;align=left;spacingLeft=6;overflow=hidden;" parent="QQYpSkaSlUF55Vdtk0ez-32" vertex="1">
          <mxGeometry x="420" width="120" height="30" as="geometry">
            <mxRectangle width="120" height="30" as="alternateBounds" />
          </mxGeometry>
        </mxCell>
        <mxCell id="QQYpSkaSlUF55Vdtk0ez-35" style="shape=tableRow;horizontal=0;startSize=0;swimlaneHead=0;swimlaneBody=0;fillColor=none;collapsible=0;dropTarget=0;points=[[0,0.5],[1,0.5]];portConstraint=eastwest;top=0;left=0;right=0;bottom=0;" parent="QQYpSkaSlUF55Vdtk0ez-13" vertex="1">
          <mxGeometry y="150" width="540" height="30" as="geometry" />
        </mxCell>
        <mxCell id="QQYpSkaSlUF55Vdtk0ez-231" style="shape=partialRectangle;connectable=0;fillColor=none;top=0;left=0;bottom=0;right=0;editable=1;overflow=hidden;align=left;spacingLeft=2;" parent="QQYpSkaSlUF55Vdtk0ez-35" vertex="1" visible="0">
          <mxGeometry width="140" height="30" as="geometry">
            <mxRectangle width="140" height="30" as="alternateBounds" />
          </mxGeometry>
        </mxCell>
        <mxCell id="QQYpSkaSlUF55Vdtk0ez-237" value="nginx-node2" style="shape=partialRectangle;connectable=0;fillColor=none;top=0;left=0;bottom=0;right=0;editable=1;overflow=hidden;align=center;spacingLeft=2;" parent="QQYpSkaSlUF55Vdtk0ez-35" vertex="1">
          <mxGeometry x="140" width="140" height="30" as="geometry">
            <mxRectangle width="140" height="30" as="alternateBounds" />
          </mxGeometry>
        </mxCell>
        <mxCell id="QQYpSkaSlUF55Vdtk0ez-36" value="北斗：http" style="shape=partialRectangle;connectable=0;fillColor=none;top=0;left=0;bottom=0;right=0;editable=1;overflow=hidden;align=center;spacingLeft=2;" parent="QQYpSkaSlUF55Vdtk0ez-35" vertex="1">
          <mxGeometry x="280" width="140" height="30" as="geometry">
            <mxRectangle width="140" height="30" as="alternateBounds" />
          </mxGeometry>
        </mxCell>
        <mxCell id="QQYpSkaSlUF55Vdtk0ez-37" value="beidou-processor" style="shape=partialRectangle;connectable=0;fillColor=none;top=0;left=0;bottom=0;right=0;align=left;spacingLeft=6;overflow=hidden;" parent="QQYpSkaSlUF55Vdtk0ez-35" vertex="1">
          <mxGeometry x="420" width="120" height="30" as="geometry">
            <mxRectangle width="120" height="30" as="alternateBounds" />
          </mxGeometry>
        </mxCell>
        <mxCell id="QQYpSkaSlUF55Vdtk0ez-38" style="shape=tableRow;horizontal=0;startSize=0;swimlaneHead=0;swimlaneBody=0;fillColor=none;collapsible=0;dropTarget=0;points=[[0,0.5],[1,0.5]];portConstraint=eastwest;top=0;left=0;right=0;bottom=0;" parent="QQYpSkaSlUF55Vdtk0ez-13" vertex="1">
          <mxGeometry y="180" width="540" height="50" as="geometry" />
        </mxCell>
        <mxCell id="QQYpSkaSlUF55Vdtk0ez-232" style="shape=partialRectangle;connectable=0;fillColor=none;top=0;left=0;bottom=0;right=0;editable=1;overflow=hidden;align=left;spacingLeft=2;" parent="QQYpSkaSlUF55Vdtk0ez-38" vertex="1" visible="0">
          <mxGeometry width="140" height="50" as="geometry">
            <mxRectangle width="140" height="50" as="alternateBounds" />
          </mxGeometry>
        </mxCell>
        <mxCell id="QQYpSkaSlUF55Vdtk0ez-238" style="shape=partialRectangle;connectable=0;fillColor=none;top=0;left=0;bottom=0;right=0;editable=1;overflow=hidden;align=center;spacingLeft=2;" parent="QQYpSkaSlUF55Vdtk0ez-38" vertex="1">
          <mxGeometry x="140" width="140" height="50" as="geometry">
            <mxRectangle width="140" height="50" as="alternateBounds" />
          </mxGeometry>
        </mxCell>
        <mxCell id="QQYpSkaSlUF55Vdtk0ez-39" value="标准数据接收接口：http" style="shape=partialRectangle;connectable=0;fillColor=none;top=0;left=0;bottom=0;right=0;editable=1;overflow=hidden;align=center;spacingLeft=2;" parent="QQYpSkaSlUF55Vdtk0ez-38" vertex="1">
          <mxGeometry x="280" width="140" height="50" as="geometry">
            <mxRectangle width="140" height="50" as="alternateBounds" />
          </mxGeometry>
        </mxCell>
        <mxCell id="QQYpSkaSlUF55Vdtk0ez-40" style="shape=partialRectangle;connectable=0;fillColor=none;top=0;left=0;bottom=0;right=0;align=left;spacingLeft=6;overflow=hidden;" parent="QQYpSkaSlUF55Vdtk0ez-38" vertex="1">
          <mxGeometry x="420" width="120" height="50" as="geometry">
            <mxRectangle width="120" height="50" as="alternateBounds" />
          </mxGeometry>
        </mxCell>
        <mxCell id="QQYpSkaSlUF55Vdtk0ez-44" style="edgeStyle=orthogonalEdgeStyle;rounded=0;orthogonalLoop=1;jettySize=auto;html=1;entryX=-0.009;entryY=0.9;entryDx=0;entryDy=0;entryPerimeter=0;" parent="1" source="1fdf3b25b50cf41e-2" target="QQYpSkaSlUF55Vdtk0ez-58" edge="1">
          <mxGeometry relative="1" as="geometry">
            <mxPoint x="1100" y="135" as="targetPoint" />
            <Array as="points">
              <mxPoint x="930" y="340" />
              <mxPoint x="930" y="516" />
            </Array>
          </mxGeometry>
        </mxCell>
        <mxCell id="QQYpSkaSlUF55Vdtk0ez-48" value="数据库" style="shape=table;startSize=30;container=1;collapsible=1;childLayout=tableLayout;fixedRows=1;rowLines=0;fontStyle=1;align=center;resizeLast=1;rounded=1;fillColor=#E0E0E0;" parent="1" vertex="1">
          <mxGeometry x="1128" y="369" width="440" height="240" as="geometry" />
        </mxCell>
        <mxCell id="QQYpSkaSlUF55Vdtk0ez-49" value="" style="shape=tableRow;horizontal=0;startSize=0;swimlaneHead=0;swimlaneBody=0;fillColor=none;collapsible=0;dropTarget=0;points=[[0,0.5],[1,0.5]];portConstraint=eastwest;top=0;left=0;right=0;bottom=1;rounded=1;" parent="QQYpSkaSlUF55Vdtk0ez-48" vertex="1">
          <mxGeometry y="30" width="440" height="30" as="geometry" />
        </mxCell>
        <mxCell id="QQYpSkaSlUF55Vdtk0ez-50" value="大数据集群中间件" style="shape=partialRectangle;connectable=0;fillColor=#E0E0E0;top=1;left=1;bottom=1;right=1;fontStyle=1;overflow=hidden;rounded=1;allowArrows=1;align=center;" parent="QQYpSkaSlUF55Vdtk0ez-49" vertex="1">
          <mxGeometry width="120" height="30" as="geometry">
            <mxRectangle width="120" height="30" as="alternateBounds" />
          </mxGeometry>
        </mxCell>
        <mxCell id="QQYpSkaSlUF55Vdtk0ez-51" value="物理库-写库" style="shape=partialRectangle;connectable=0;fillColor=#E0E0E0;top=1;left=1;bottom=1;right=1;align=center;spacingLeft=6;fontStyle=5;overflow=hidden;rounded=1;" parent="QQYpSkaSlUF55Vdtk0ez-49" vertex="1">
          <mxGeometry x="120" width="160" height="30" as="geometry">
            <mxRectangle width="160" height="30" as="alternateBounds" />
          </mxGeometry>
        </mxCell>
        <mxCell id="QQYpSkaSlUF55Vdtk0ez-91" value="物理库-读库" style="shape=partialRectangle;connectable=0;fillColor=#E0E0E0;top=1;left=1;bottom=1;right=1;align=center;spacingLeft=6;fontStyle=5;overflow=hidden;rounded=1;" parent="QQYpSkaSlUF55Vdtk0ez-49" vertex="1">
          <mxGeometry x="280" width="160" height="30" as="geometry">
            <mxRectangle width="160" height="30" as="alternateBounds" />
          </mxGeometry>
        </mxCell>
        <mxCell id="QQYpSkaSlUF55Vdtk0ez-52" value="" style="shape=tableRow;horizontal=0;startSize=0;swimlaneHead=0;swimlaneBody=0;fillColor=none;collapsible=0;dropTarget=0;points=[[0,0.5],[1,0.5]];portConstraint=eastwest;top=0;left=0;right=0;bottom=0;rounded=1;" parent="QQYpSkaSlUF55Vdtk0ez-48" vertex="1">
          <mxGeometry y="60" width="440" height="30" as="geometry" />
        </mxCell>
        <mxCell id="QQYpSkaSlUF55Vdtk0ez-53" value="mycat2" style="shape=partialRectangle;connectable=0;fillColor=none;top=0;left=0;bottom=0;right=0;editable=1;overflow=hidden;rounded=1;movableLabel=0;rowspan=6;colspan=1;" parent="QQYpSkaSlUF55Vdtk0ez-52" vertex="1">
          <mxGeometry width="120" height="180" as="geometry">
            <mxRectangle width="120" height="30" as="alternateBounds" />
          </mxGeometry>
        </mxCell>
        <mxCell id="QQYpSkaSlUF55Vdtk0ez-54" value="mysql-database-mycat-write" style="shape=partialRectangle;connectable=0;fillColor=none;top=0;left=0;bottom=0;right=0;align=left;spacingLeft=6;overflow=hidden;rounded=1;" parent="QQYpSkaSlUF55Vdtk0ez-52" vertex="1">
          <mxGeometry x="120" width="160" height="30" as="geometry">
            <mxRectangle width="160" height="30" as="alternateBounds" />
          </mxGeometry>
        </mxCell>
        <mxCell id="QQYpSkaSlUF55Vdtk0ez-92" value="mysql-database-mycat-read" style="shape=partialRectangle;connectable=0;fillColor=none;top=0;left=0;bottom=0;right=0;align=left;spacingLeft=6;overflow=hidden;rounded=1;" parent="QQYpSkaSlUF55Vdtk0ez-52" vertex="1">
          <mxGeometry x="280" width="160" height="30" as="geometry">
            <mxRectangle width="160" height="30" as="alternateBounds" />
          </mxGeometry>
        </mxCell>
        <mxCell id="QQYpSkaSlUF55Vdtk0ez-55" value="" style="shape=tableRow;horizontal=0;startSize=0;swimlaneHead=0;swimlaneBody=0;fillColor=none;collapsible=0;dropTarget=0;points=[[0,0.5],[1,0.5]];portConstraint=eastwest;top=0;left=0;right=0;bottom=0;rounded=1;" parent="QQYpSkaSlUF55Vdtk0ez-48" vertex="1">
          <mxGeometry y="90" width="440" height="30" as="geometry" />
        </mxCell>
        <mxCell id="QQYpSkaSlUF55Vdtk0ez-56" value="" style="shape=partialRectangle;connectable=0;fillColor=none;top=0;left=0;bottom=0;right=0;editable=1;overflow=hidden;rounded=1;movableLabel=0;" parent="QQYpSkaSlUF55Vdtk0ez-55" vertex="1" visible="0">
          <mxGeometry width="120" height="30" as="geometry">
            <mxRectangle width="120" height="30" as="alternateBounds" />
          </mxGeometry>
        </mxCell>
        <mxCell id="QQYpSkaSlUF55Vdtk0ez-57" value="mysql-database-1-write" style="shape=partialRectangle;connectable=0;fillColor=none;top=0;left=0;bottom=0;right=0;align=left;spacingLeft=6;overflow=hidden;rounded=1;" parent="QQYpSkaSlUF55Vdtk0ez-55" vertex="1">
          <mxGeometry x="120" width="160" height="30" as="geometry">
            <mxRectangle width="160" height="30" as="alternateBounds" />
          </mxGeometry>
        </mxCell>
        <mxCell id="QQYpSkaSlUF55Vdtk0ez-93" value="mysql-database-1-read" style="shape=partialRectangle;connectable=0;fillColor=none;top=0;left=0;bottom=0;right=0;align=left;spacingLeft=6;overflow=hidden;rounded=1;" parent="QQYpSkaSlUF55Vdtk0ez-55" vertex="1">
          <mxGeometry x="280" width="160" height="30" as="geometry">
            <mxRectangle width="160" height="30" as="alternateBounds" />
          </mxGeometry>
        </mxCell>
        <mxCell id="QQYpSkaSlUF55Vdtk0ez-58" value="" style="shape=tableRow;horizontal=0;startSize=0;swimlaneHead=0;swimlaneBody=0;fillColor=none;collapsible=0;dropTarget=0;points=[[0,0.5],[1,0.5]];portConstraint=eastwest;top=0;left=0;right=0;bottom=0;rounded=1;" parent="QQYpSkaSlUF55Vdtk0ez-48" vertex="1">
          <mxGeometry y="120" width="440" height="30" as="geometry" />
        </mxCell>
        <mxCell id="QQYpSkaSlUF55Vdtk0ez-59" value="" style="shape=partialRectangle;connectable=0;fillColor=none;top=0;left=0;bottom=0;right=0;editable=1;overflow=hidden;rounded=1;movableLabel=0;" parent="QQYpSkaSlUF55Vdtk0ez-58" vertex="1" visible="0">
          <mxGeometry width="120" height="30" as="geometry">
            <mxRectangle width="120" height="30" as="alternateBounds" />
          </mxGeometry>
        </mxCell>
        <mxCell id="QQYpSkaSlUF55Vdtk0ez-60" value="mysql-database-2-write" style="shape=partialRectangle;connectable=0;fillColor=none;top=0;left=0;bottom=0;right=0;align=left;spacingLeft=6;overflow=hidden;rounded=1;" parent="QQYpSkaSlUF55Vdtk0ez-58" vertex="1">
          <mxGeometry x="120" width="160" height="30" as="geometry">
            <mxRectangle width="160" height="30" as="alternateBounds" />
          </mxGeometry>
        </mxCell>
        <mxCell id="QQYpSkaSlUF55Vdtk0ez-94" value="mysql-database-2-read" style="shape=partialRectangle;connectable=0;fillColor=none;top=0;left=0;bottom=0;right=0;align=left;spacingLeft=6;overflow=hidden;rounded=1;" parent="QQYpSkaSlUF55Vdtk0ez-58" vertex="1">
          <mxGeometry x="280" width="160" height="30" as="geometry">
            <mxRectangle width="160" height="30" as="alternateBounds" />
          </mxGeometry>
        </mxCell>
        <mxCell id="QQYpSkaSlUF55Vdtk0ez-67" style="shape=tableRow;horizontal=0;startSize=0;swimlaneHead=0;swimlaneBody=0;fillColor=none;collapsible=0;dropTarget=0;points=[[0,0.5],[1,0.5]];portConstraint=eastwest;top=0;left=0;right=0;bottom=0;rounded=1;" parent="QQYpSkaSlUF55Vdtk0ez-48" vertex="1">
          <mxGeometry y="150" width="440" height="30" as="geometry" />
        </mxCell>
        <mxCell id="QQYpSkaSlUF55Vdtk0ez-68" style="shape=partialRectangle;connectable=0;fillColor=none;top=0;left=0;bottom=0;right=0;editable=1;overflow=hidden;rounded=1;movableLabel=0;" parent="QQYpSkaSlUF55Vdtk0ez-67" vertex="1" visible="0">
          <mxGeometry width="120" height="30" as="geometry">
            <mxRectangle width="120" height="30" as="alternateBounds" />
          </mxGeometry>
        </mxCell>
        <mxCell id="QQYpSkaSlUF55Vdtk0ez-69" value="mysql-database-3-write" style="shape=partialRectangle;connectable=0;fillColor=none;top=0;left=0;bottom=0;right=0;align=left;spacingLeft=6;overflow=hidden;rounded=1;" parent="QQYpSkaSlUF55Vdtk0ez-67" vertex="1">
          <mxGeometry x="120" width="160" height="30" as="geometry">
            <mxRectangle width="160" height="30" as="alternateBounds" />
          </mxGeometry>
        </mxCell>
        <mxCell id="QQYpSkaSlUF55Vdtk0ez-95" value="mysql-database-3-read" style="shape=partialRectangle;connectable=0;fillColor=none;top=0;left=0;bottom=0;right=0;align=left;spacingLeft=6;overflow=hidden;rounded=1;" parent="QQYpSkaSlUF55Vdtk0ez-67" vertex="1">
          <mxGeometry x="280" width="160" height="30" as="geometry">
            <mxRectangle width="160" height="30" as="alternateBounds" />
          </mxGeometry>
        </mxCell>
        <mxCell id="QQYpSkaSlUF55Vdtk0ez-64" style="shape=tableRow;horizontal=0;startSize=0;swimlaneHead=0;swimlaneBody=0;fillColor=none;collapsible=0;dropTarget=0;points=[[0,0.5],[1,0.5]];portConstraint=eastwest;top=0;left=0;right=0;bottom=0;rounded=1;" parent="QQYpSkaSlUF55Vdtk0ez-48" vertex="1">
          <mxGeometry y="180" width="440" height="30" as="geometry" />
        </mxCell>
        <mxCell id="QQYpSkaSlUF55Vdtk0ez-65" style="shape=partialRectangle;connectable=0;fillColor=none;top=0;left=0;bottom=0;right=0;editable=1;overflow=hidden;rounded=1;movableLabel=0;" parent="QQYpSkaSlUF55Vdtk0ez-64" vertex="1" visible="0">
          <mxGeometry width="120" height="30" as="geometry">
            <mxRectangle width="120" height="30" as="alternateBounds" />
          </mxGeometry>
        </mxCell>
        <mxCell id="QQYpSkaSlUF55Vdtk0ez-66" value="mysql-database-4-write" style="shape=partialRectangle;connectable=0;fillColor=none;top=0;left=0;bottom=0;right=0;align=left;spacingLeft=6;overflow=hidden;rounded=1;" parent="QQYpSkaSlUF55Vdtk0ez-64" vertex="1">
          <mxGeometry x="120" width="160" height="30" as="geometry">
            <mxRectangle width="160" height="30" as="alternateBounds" />
          </mxGeometry>
        </mxCell>
        <mxCell id="QQYpSkaSlUF55Vdtk0ez-96" value="mysql-database-4-read" style="shape=partialRectangle;connectable=0;fillColor=none;top=0;left=0;bottom=0;right=0;align=left;spacingLeft=6;overflow=hidden;rounded=1;" parent="QQYpSkaSlUF55Vdtk0ez-64" vertex="1">
          <mxGeometry x="280" width="160" height="30" as="geometry">
            <mxRectangle width="160" height="30" as="alternateBounds" />
          </mxGeometry>
        </mxCell>
        <mxCell id="QQYpSkaSlUF55Vdtk0ez-61" style="shape=tableRow;horizontal=0;startSize=0;swimlaneHead=0;swimlaneBody=0;fillColor=none;collapsible=0;dropTarget=0;points=[[0,0.5],[1,0.5]];portConstraint=eastwest;top=0;left=0;right=0;bottom=0;rounded=1;" parent="QQYpSkaSlUF55Vdtk0ez-48" vertex="1">
          <mxGeometry y="210" width="440" height="30" as="geometry" />
        </mxCell>
        <mxCell id="QQYpSkaSlUF55Vdtk0ez-62" style="shape=partialRectangle;connectable=0;fillColor=none;top=0;left=0;bottom=0;right=0;editable=1;overflow=hidden;rounded=1;movableLabel=0;" parent="QQYpSkaSlUF55Vdtk0ez-61" vertex="1" visible="0">
          <mxGeometry width="120" height="30" as="geometry">
            <mxRectangle width="120" height="30" as="alternateBounds" />
          </mxGeometry>
        </mxCell>
        <mxCell id="QQYpSkaSlUF55Vdtk0ez-63" value="mysql-database-5-write" style="shape=partialRectangle;connectable=0;fillColor=none;top=0;left=0;bottom=0;right=0;align=left;spacingLeft=6;overflow=hidden;rounded=1;" parent="QQYpSkaSlUF55Vdtk0ez-61" vertex="1">
          <mxGeometry x="120" width="160" height="30" as="geometry">
            <mxRectangle width="160" height="30" as="alternateBounds" />
          </mxGeometry>
        </mxCell>
        <mxCell id="QQYpSkaSlUF55Vdtk0ez-97" value="mysql-database-5-read" style="shape=partialRectangle;connectable=0;fillColor=none;top=0;left=0;bottom=0;right=0;align=left;spacingLeft=6;overflow=hidden;rounded=1;" parent="QQYpSkaSlUF55Vdtk0ez-61" vertex="1">
          <mxGeometry x="280" width="160" height="30" as="geometry">
            <mxRectangle width="160" height="30" as="alternateBounds" />
          </mxGeometry>
        </mxCell>
        <mxCell id="QQYpSkaSlUF55Vdtk0ez-104" value="数据抓取模块" style="swimlane;html=1;fontStyle=0;childLayout=stackLayout;horizontal=1;startSize=26;fillColor=#e0e0e0;horizontalStack=0;resizeParent=1;resizeLast=0;collapsible=1;marginBottom=0;swimlaneFillColor=#ffffff;align=center;rounded=1;shadow=0;comic=0;labelBackgroundColor=none;strokeWidth=1;fontFamily=Verdana;fontSize=12" parent="1" vertex="1">
          <mxGeometry x="40" y="235" width="140" height="78" as="geometry" />
        </mxCell>
        <mxCell id="QQYpSkaSlUF55Vdtk0ez-105" value="天气预报数据" style="text;html=1;strokeColor=none;fillColor=none;spacingLeft=4;spacingRight=4;whiteSpace=wrap;overflow=hidden;rotatable=0;points=[[0,0.5],[1,0.5]];portConstraint=eastwest;align=center;" parent="QQYpSkaSlUF55Vdtk0ez-104" vertex="1">
          <mxGeometry y="26" width="140" height="26" as="geometry" />
        </mxCell>
        <mxCell id="QQYpSkaSlUF55Vdtk0ez-106" value="视频、截图数据" style="text;html=1;strokeColor=none;fillColor=none;spacingLeft=4;spacingRight=4;whiteSpace=wrap;overflow=hidden;rotatable=0;points=[[0,0.5],[1,0.5]];portConstraint=eastwest;align=center;" parent="QQYpSkaSlUF55Vdtk0ez-104" vertex="1">
          <mxGeometry y="52" width="140" height="26" as="geometry" />
        </mxCell>
        <mxCell id="QQYpSkaSlUF55Vdtk0ez-107" style="edgeStyle=orthogonalEdgeStyle;rounded=0;orthogonalLoop=1;jettySize=auto;html=1;exitX=1;exitY=0.5;exitDx=0;exitDy=0;entryX=0;entryY=0.5;entryDx=0;entryDy=0;" parent="1" target="QQYpSkaSlUF55Vdtk0ez-38" edge="1">
          <mxGeometry relative="1" as="geometry">
            <mxPoint x="181" y="273.9999999999999" as="sourcePoint" />
            <Array as="points">
              <mxPoint x="290" y="274" />
              <mxPoint x="290" y="235" />
            </Array>
          </mxGeometry>
        </mxCell>
        <mxCell id="QQYpSkaSlUF55Vdtk0ez-110" value="虚拟设备" style="swimlane;html=1;fontStyle=0;childLayout=stackLayout;horizontal=1;startSize=26;fillColor=#e0e0e0;horizontalStack=0;resizeParent=1;resizeLast=0;collapsible=1;marginBottom=0;swimlaneFillColor=#ffffff;align=center;rounded=1;shadow=0;comic=0;labelBackgroundColor=none;strokeWidth=1;fontFamily=Verdana;fontSize=12" parent="1" vertex="1">
          <mxGeometry x="40" y="32" width="140" height="52" as="geometry" />
        </mxCell>
        <mxCell id="QQYpSkaSlUF55Vdtk0ez-111" value="virtual-device" style="text;html=1;strokeColor=none;fillColor=none;spacingLeft=4;spacingRight=4;whiteSpace=wrap;overflow=hidden;rotatable=0;points=[[0,0.5],[1,0.5]];portConstraint=eastwest;align=center;" parent="QQYpSkaSlUF55Vdtk0ez-110" vertex="1">
          <mxGeometry y="26" width="140" height="26" as="geometry" />
        </mxCell>
        <mxCell id="QQYpSkaSlUF55Vdtk0ez-112" style="edgeStyle=orthogonalEdgeStyle;rounded=0;orthogonalLoop=1;jettySize=auto;html=1;entryX=0;entryY=0.5;entryDx=0;entryDy=0;" parent="1" target="QQYpSkaSlUF55Vdtk0ez-26" edge="1">
          <mxGeometry relative="1" as="geometry">
            <mxPoint x="181" y="71" as="sourcePoint" />
            <Array as="points">
              <mxPoint x="290" y="71" />
              <mxPoint x="290" y="105" />
            </Array>
          </mxGeometry>
        </mxCell>
        <mxCell id="QQYpSkaSlUF55Vdtk0ez-160" style="edgeStyle=orthogonalEdgeStyle;rounded=0;orthogonalLoop=1;jettySize=auto;html=1;entryX=0;entryY=0.5;entryDx=0;entryDy=0;" parent="1" source="QQYpSkaSlUF55Vdtk0ez-115" target="QQYpSkaSlUF55Vdtk0ez-120" edge="1">
          <mxGeometry relative="1" as="geometry">
            <Array as="points">
              <mxPoint x="170" y="710" />
              <mxPoint x="170" y="810" />
            </Array>
          </mxGeometry>
        </mxCell>
        <mxCell id="QQYpSkaSlUF55Vdtk0ez-115" value="用户" style="shape=umlActor;verticalLabelPosition=bottom;verticalAlign=top;html=1;rounded=1;fillColor=#E0E0E0;" parent="1" vertex="1">
          <mxGeometry x="60" y="680" width="30" height="60" as="geometry" />
        </mxCell>
        <mxCell id="QQYpSkaSlUF55Vdtk0ez-116" value="前端：客户端" style="shape=table;startSize=30;container=1;collapsible=1;childLayout=tableLayout;fixedRows=1;rowLines=0;fontStyle=1;align=center;resizeLast=1;rounded=1;fillColor=#E0E0E0;" parent="1" vertex="1">
          <mxGeometry x="258" y="735" width="370" height="150" as="geometry" />
        </mxCell>
        <mxCell id="QQYpSkaSlUF55Vdtk0ez-117" value="" style="shape=tableRow;horizontal=0;startSize=0;swimlaneHead=0;swimlaneBody=0;fillColor=none;collapsible=0;dropTarget=0;points=[[0,0.5],[1,0.5]];portConstraint=eastwest;top=0;left=0;right=0;bottom=1;rounded=1;" parent="QQYpSkaSlUF55Vdtk0ez-116" vertex="1">
          <mxGeometry y="30" width="370" height="30" as="geometry" />
        </mxCell>
        <mxCell id="QQYpSkaSlUF55Vdtk0ez-118" value="客户端类型" style="shape=partialRectangle;connectable=0;fillColor=#E0E0E0;top=1;left=1;bottom=1;right=1;fontStyle=1;overflow=hidden;rounded=1;" parent="QQYpSkaSlUF55Vdtk0ez-117" vertex="1">
          <mxGeometry width="130" height="30" as="geometry">
            <mxRectangle width="130" height="30" as="alternateBounds" />
          </mxGeometry>
        </mxCell>
        <mxCell id="QQYpSkaSlUF55Vdtk0ez-239" value="防火墙" style="shape=partialRectangle;connectable=0;fillColor=#E0E0E0;top=1;left=1;bottom=1;right=1;align=center;spacingLeft=6;fontStyle=5;overflow=hidden;rounded=1;" parent="QQYpSkaSlUF55Vdtk0ez-117" vertex="1">
          <mxGeometry x="130" width="80" height="30" as="geometry">
            <mxRectangle width="80" height="30" as="alternateBounds" />
          </mxGeometry>
        </mxCell>
        <mxCell id="QQYpSkaSlUF55Vdtk0ez-185" value="集群代理" style="shape=partialRectangle;connectable=0;fillColor=#E0E0E0;top=1;left=1;bottom=1;right=1;align=center;spacingLeft=6;fontStyle=5;overflow=hidden;rounded=1;" parent="QQYpSkaSlUF55Vdtk0ez-117" vertex="1">
          <mxGeometry x="210" width="80" height="30" as="geometry">
            <mxRectangle width="80" height="30" as="alternateBounds" />
          </mxGeometry>
        </mxCell>
        <mxCell id="QQYpSkaSlUF55Vdtk0ez-119" value="实现技术" style="shape=partialRectangle;connectable=0;fillColor=#E0E0E0;top=1;left=1;bottom=1;right=1;align=center;spacingLeft=6;fontStyle=5;overflow=hidden;rounded=1;" parent="QQYpSkaSlUF55Vdtk0ez-117" vertex="1">
          <mxGeometry x="290" width="80" height="30" as="geometry">
            <mxRectangle width="80" height="30" as="alternateBounds" />
          </mxGeometry>
        </mxCell>
        <mxCell id="QQYpSkaSlUF55Vdtk0ez-120" value="" style="shape=tableRow;horizontal=0;startSize=0;swimlaneHead=0;swimlaneBody=0;fillColor=none;collapsible=0;dropTarget=0;points=[[0,0.5],[1,0.5]];portConstraint=eastwest;top=0;left=0;right=0;bottom=0;rounded=1;" parent="QQYpSkaSlUF55Vdtk0ez-116" vertex="1">
          <mxGeometry y="60" width="370" height="30" as="geometry" />
        </mxCell>
        <mxCell id="QQYpSkaSlUF55Vdtk0ez-121" value="公众号" style="shape=partialRectangle;connectable=0;fillColor=none;top=0;left=0;bottom=0;right=0;editable=1;overflow=hidden;rounded=1;" parent="QQYpSkaSlUF55Vdtk0ez-120" vertex="1">
          <mxGeometry width="130" height="30" as="geometry">
            <mxRectangle width="130" height="30" as="alternateBounds" />
          </mxGeometry>
        </mxCell>
        <mxCell id="QQYpSkaSlUF55Vdtk0ez-240" value="80端口" style="shape=partialRectangle;connectable=0;fillColor=none;top=0;left=0;bottom=0;right=0;align=center;spacingLeft=6;overflow=hidden;rounded=1;rowspan=3;colspan=1;" parent="QQYpSkaSlUF55Vdtk0ez-120" vertex="1">
          <mxGeometry x="130" width="80" height="90" as="geometry">
            <mxRectangle width="80" height="30" as="alternateBounds" />
          </mxGeometry>
        </mxCell>
        <mxCell id="QQYpSkaSlUF55Vdtk0ez-186" value="nginx-node1" style="shape=partialRectangle;connectable=0;fillColor=none;top=0;left=0;bottom=0;right=0;align=center;spacingLeft=6;overflow=hidden;rounded=1;" parent="QQYpSkaSlUF55Vdtk0ez-120" vertex="1">
          <mxGeometry x="210" width="80" height="30" as="geometry">
            <mxRectangle width="80" height="30" as="alternateBounds" />
          </mxGeometry>
        </mxCell>
        <mxCell id="QQYpSkaSlUF55Vdtk0ez-122" value="vue" style="shape=partialRectangle;connectable=0;fillColor=none;top=0;left=0;bottom=0;right=0;align=center;spacingLeft=6;overflow=hidden;rounded=1;rowspan=3;colspan=1;" parent="QQYpSkaSlUF55Vdtk0ez-120" vertex="1">
          <mxGeometry x="290" width="80" height="90" as="geometry">
            <mxRectangle width="80" height="30" as="alternateBounds" />
          </mxGeometry>
        </mxCell>
        <mxCell id="QQYpSkaSlUF55Vdtk0ez-123" value="" style="shape=tableRow;horizontal=0;startSize=0;swimlaneHead=0;swimlaneBody=0;fillColor=none;collapsible=0;dropTarget=0;points=[[0,0.5],[1,0.5]];portConstraint=eastwest;top=0;left=0;right=0;bottom=0;rounded=1;" parent="QQYpSkaSlUF55Vdtk0ez-116" vertex="1">
          <mxGeometry y="90" width="370" height="30" as="geometry" />
        </mxCell>
        <mxCell id="QQYpSkaSlUF55Vdtk0ez-124" value="Andriod、ios 客户端" style="shape=partialRectangle;connectable=0;fillColor=none;top=0;left=0;bottom=0;right=0;editable=1;overflow=hidden;rounded=1;" parent="QQYpSkaSlUF55Vdtk0ez-123" vertex="1">
          <mxGeometry width="130" height="30" as="geometry">
            <mxRectangle width="130" height="30" as="alternateBounds" />
          </mxGeometry>
        </mxCell>
        <mxCell id="QQYpSkaSlUF55Vdtk0ez-241" style="shape=partialRectangle;connectable=0;fillColor=none;top=0;left=0;bottom=0;right=0;align=center;spacingLeft=6;overflow=hidden;rounded=1;" parent="QQYpSkaSlUF55Vdtk0ez-123" vertex="1" visible="0">
          <mxGeometry x="130" width="80" height="30" as="geometry">
            <mxRectangle width="80" height="30" as="alternateBounds" />
          </mxGeometry>
        </mxCell>
        <mxCell id="QQYpSkaSlUF55Vdtk0ez-187" value="nginx-node2" style="shape=partialRectangle;connectable=0;fillColor=none;top=0;left=0;bottom=0;right=0;align=center;spacingLeft=6;overflow=hidden;rounded=1;" parent="QQYpSkaSlUF55Vdtk0ez-123" vertex="1">
          <mxGeometry x="210" width="80" height="30" as="geometry">
            <mxRectangle width="80" height="30" as="alternateBounds" />
          </mxGeometry>
        </mxCell>
        <mxCell id="QQYpSkaSlUF55Vdtk0ez-125" value="Row 2" style="shape=partialRectangle;connectable=0;fillColor=none;top=0;left=0;bottom=0;right=0;align=left;spacingLeft=6;overflow=hidden;rounded=1;" parent="QQYpSkaSlUF55Vdtk0ez-123" vertex="1" visible="0">
          <mxGeometry x="290" width="80" height="30" as="geometry">
            <mxRectangle width="80" height="30" as="alternateBounds" />
          </mxGeometry>
        </mxCell>
        <mxCell id="QQYpSkaSlUF55Vdtk0ez-126" value="" style="shape=tableRow;horizontal=0;startSize=0;swimlaneHead=0;swimlaneBody=0;fillColor=none;collapsible=0;dropTarget=0;points=[[0,0.5],[1,0.5]];portConstraint=eastwest;top=0;left=0;right=0;bottom=0;rounded=1;" parent="QQYpSkaSlUF55Vdtk0ez-116" vertex="1">
          <mxGeometry y="120" width="370" height="30" as="geometry" />
        </mxCell>
        <mxCell id="QQYpSkaSlUF55Vdtk0ez-127" value="PC 浏览器" style="shape=partialRectangle;connectable=0;fillColor=none;top=0;left=0;bottom=0;right=0;editable=1;overflow=hidden;rounded=1;" parent="QQYpSkaSlUF55Vdtk0ez-126" vertex="1">
          <mxGeometry width="130" height="30" as="geometry">
            <mxRectangle width="130" height="30" as="alternateBounds" />
          </mxGeometry>
        </mxCell>
        <mxCell id="QQYpSkaSlUF55Vdtk0ez-242" style="shape=partialRectangle;connectable=0;fillColor=none;top=0;left=0;bottom=0;right=0;align=left;spacingLeft=6;overflow=hidden;rounded=1;" parent="QQYpSkaSlUF55Vdtk0ez-126" vertex="1" visible="0">
          <mxGeometry x="130" width="80" height="30" as="geometry">
            <mxRectangle width="80" height="30" as="alternateBounds" />
          </mxGeometry>
        </mxCell>
        <mxCell id="QQYpSkaSlUF55Vdtk0ez-188" style="shape=partialRectangle;connectable=0;fillColor=none;top=0;left=0;bottom=0;right=0;align=left;spacingLeft=6;overflow=hidden;rounded=1;" parent="QQYpSkaSlUF55Vdtk0ez-126" vertex="1">
          <mxGeometry x="210" width="80" height="30" as="geometry">
            <mxRectangle width="80" height="30" as="alternateBounds" />
          </mxGeometry>
        </mxCell>
        <mxCell id="QQYpSkaSlUF55Vdtk0ez-128" value="Row 3" style="shape=partialRectangle;connectable=0;fillColor=none;top=0;left=0;bottom=0;right=0;align=left;spacingLeft=6;overflow=hidden;rounded=1;" parent="QQYpSkaSlUF55Vdtk0ez-126" vertex="1" visible="0">
          <mxGeometry x="290" width="80" height="30" as="geometry">
            <mxRectangle width="80" height="30" as="alternateBounds" />
          </mxGeometry>
        </mxCell>
        <mxCell id="QQYpSkaSlUF55Vdtk0ez-158" style="edgeStyle=orthogonalEdgeStyle;rounded=0;orthogonalLoop=1;jettySize=auto;html=1;entryX=-0.006;entryY=0.139;entryDx=0;entryDy=0;entryPerimeter=0;" parent="1" source="QQYpSkaSlUF55Vdtk0ez-131" target="QQYpSkaSlUF55Vdtk0ez-64" edge="1">
          <mxGeometry relative="1" as="geometry">
            <Array as="points">
              <mxPoint x="870" y="553" />
            </Array>
          </mxGeometry>
        </mxCell>
        <mxCell id="QQYpSkaSlUF55Vdtk0ez-131" value="后台：客户端服务模块" style="shape=table;startSize=30;container=1;collapsible=1;childLayout=tableLayout;fixedRows=1;rowLines=0;fontStyle=1;align=center;resizeLast=1;rounded=1;fillColor=#E0E0E0;" parent="1" vertex="1">
          <mxGeometry x="735" y="680" width="350" height="1160.0000000000007" as="geometry" />
        </mxCell>
        <mxCell id="QQYpSkaSlUF55Vdtk0ez-132" value="" style="shape=tableRow;horizontal=0;startSize=0;swimlaneHead=0;swimlaneBody=0;fillColor=none;collapsible=0;dropTarget=0;points=[[0,0.5],[1,0.5]];portConstraint=eastwest;top=0;left=0;right=0;bottom=1;rounded=1;" parent="QQYpSkaSlUF55Vdtk0ez-131" vertex="1">
          <mxGeometry y="30" width="350" height="30" as="geometry" />
        </mxCell>
        <mxCell id="QQYpSkaSlUF55Vdtk0ez-133" value="网关" style="shape=partialRectangle;connectable=0;fillColor=#E0E0E0;top=1;left=1;bottom=1;right=1;fontStyle=1;overflow=hidden;rounded=1;" parent="QQYpSkaSlUF55Vdtk0ez-132" vertex="1">
          <mxGeometry width="130" height="30" as="geometry">
            <mxRectangle width="130" height="30" as="alternateBounds" />
          </mxGeometry>
        </mxCell>
        <mxCell id="QQYpSkaSlUF55Vdtk0ez-134" value="功能模块" style="shape=partialRectangle;connectable=0;fillColor=#E0E0E0;top=1;left=1;bottom=1;right=1;align=center;spacingLeft=6;fontStyle=5;overflow=hidden;rounded=1;rowspan=1;colspan=2;" parent="QQYpSkaSlUF55Vdtk0ez-132" vertex="1">
          <mxGeometry x="130" width="220" height="30" as="geometry">
            <mxRectangle width="110" height="30" as="alternateBounds" />
          </mxGeometry>
        </mxCell>
        <mxCell id="QQYpSkaSlUF55Vdtk0ez-244" style="shape=partialRectangle;connectable=0;fillColor=#E0E0E0;top=1;left=1;bottom=1;right=1;align=center;spacingLeft=6;fontStyle=5;overflow=hidden;rounded=1;" parent="QQYpSkaSlUF55Vdtk0ez-132" vertex="1" visible="0">
          <mxGeometry x="240" width="110" height="30" as="geometry">
            <mxRectangle width="110" height="30" as="alternateBounds" />
          </mxGeometry>
        </mxCell>
        <mxCell id="QQYpSkaSlUF55Vdtk0ez-135" value="" style="shape=tableRow;horizontal=0;startSize=0;swimlaneHead=0;swimlaneBody=0;fillColor=none;collapsible=0;dropTarget=0;points=[[0,0.5],[1,0.5]];portConstraint=eastwest;top=0;left=0;right=0;bottom=0;rounded=1;" parent="QQYpSkaSlUF55Vdtk0ez-131" vertex="1">
          <mxGeometry y="60" width="350" height="30" as="geometry" />
        </mxCell>
        <mxCell id="QQYpSkaSlUF55Vdtk0ez-136" value="spring cloud eureka" style="shape=partialRectangle;connectable=0;fillColor=none;top=1;left=1;bottom=1;right=1;editable=1;overflow=hidden;rounded=1;" parent="QQYpSkaSlUF55Vdtk0ez-135" vertex="1">
          <mxGeometry width="130" height="30" as="geometry">
            <mxRectangle width="130" height="30" as="alternateBounds" />
          </mxGeometry>
        </mxCell>
        <mxCell id="QQYpSkaSlUF55Vdtk0ez-137" value="大屏幕展示" style="shape=partialRectangle;connectable=0;fillColor=none;top=1;left=1;bottom=1;right=1;align=center;spacingLeft=6;overflow=hidden;rounded=1;" parent="QQYpSkaSlUF55Vdtk0ez-135" vertex="1">
          <mxGeometry x="130" width="110" height="30" as="geometry">
            <mxRectangle width="110" height="30" as="alternateBounds" />
          </mxGeometry>
        </mxCell>
        <mxCell id="QQYpSkaSlUF55Vdtk0ez-245" style="shape=partialRectangle;connectable=0;fillColor=none;top=1;left=1;bottom=1;right=1;align=center;spacingLeft=6;overflow=hidden;rounded=1;" parent="QQYpSkaSlUF55Vdtk0ez-135" vertex="1">
          <mxGeometry x="240" width="110" height="30" as="geometry">
            <mxRectangle width="110" height="30" as="alternateBounds" />
          </mxGeometry>
        </mxCell>
        <mxCell id="QQYpSkaSlUF55Vdtk0ez-141" value="" style="shape=tableRow;horizontal=0;startSize=0;swimlaneHead=0;swimlaneBody=0;fillColor=none;collapsible=0;dropTarget=0;points=[[0,0.5],[1,0.5]];portConstraint=eastwest;top=0;left=0;right=0;bottom=0;rounded=1;" parent="QQYpSkaSlUF55Vdtk0ez-131" vertex="1">
          <mxGeometry y="90" width="350" height="30" as="geometry" />
        </mxCell>
        <mxCell id="QQYpSkaSlUF55Vdtk0ez-142" value="spring cloud zuul" style="shape=partialRectangle;connectable=0;fillColor=none;top=1;left=1;bottom=1;right=1;editable=1;overflow=hidden;rounded=1;rowspan=33;colspan=1;" parent="QQYpSkaSlUF55Vdtk0ez-141" vertex="1">
          <mxGeometry width="130" height="1070" as="geometry">
            <mxRectangle width="130" height="30" as="alternateBounds" />
          </mxGeometry>
        </mxCell>
        <mxCell id="QQYpSkaSlUF55Vdtk0ez-143" value="智能决策地图" style="shape=partialRectangle;connectable=0;fillColor=none;top=1;left=1;bottom=1;right=1;align=center;spacingLeft=6;overflow=hidden;rounded=1;" parent="QQYpSkaSlUF55Vdtk0ez-141" vertex="1">
          <mxGeometry x="130" width="110" height="30" as="geometry">
            <mxRectangle width="110" height="30" as="alternateBounds" />
          </mxGeometry>
        </mxCell>
        <mxCell id="QQYpSkaSlUF55Vdtk0ez-246" style="shape=partialRectangle;connectable=0;fillColor=none;top=1;left=1;bottom=1;right=1;align=center;spacingLeft=6;overflow=hidden;rounded=1;" parent="QQYpSkaSlUF55Vdtk0ez-141" vertex="1">
          <mxGeometry x="240" width="110" height="30" as="geometry">
            <mxRectangle width="110" height="30" as="alternateBounds" />
          </mxGeometry>
        </mxCell>
        <mxCell id="QQYpSkaSlUF55Vdtk0ez-138" value="" style="shape=tableRow;horizontal=0;startSize=0;swimlaneHead=0;swimlaneBody=0;fillColor=none;collapsible=0;dropTarget=0;points=[[0,0.5],[1,0.5]];portConstraint=eastwest;top=0;left=0;right=0;bottom=0;rounded=1;" parent="QQYpSkaSlUF55Vdtk0ez-131" vertex="1">
          <mxGeometry y="120" width="350" height="30" as="geometry" />
        </mxCell>
        <mxCell id="QQYpSkaSlUF55Vdtk0ez-139" value="" style="shape=partialRectangle;connectable=0;fillColor=none;top=1;left=0;bottom=0;right=0;editable=1;overflow=hidden;rounded=1;" parent="QQYpSkaSlUF55Vdtk0ez-138" vertex="1" visible="0">
          <mxGeometry width="130" height="30" as="geometry">
            <mxRectangle width="130" height="30" as="alternateBounds" />
          </mxGeometry>
        </mxCell>
        <mxCell id="QQYpSkaSlUF55Vdtk0ez-140" value="专项展示" style="shape=partialRectangle;connectable=0;fillColor=none;top=1;left=1;bottom=1;right=1;align=center;spacingLeft=6;overflow=hidden;rounded=1;colspan=1;rowspan=2;" parent="QQYpSkaSlUF55Vdtk0ez-138" vertex="1">
          <mxGeometry x="130" width="110" height="60" as="geometry">
            <mxRectangle width="110" height="30" as="alternateBounds" />
          </mxGeometry>
        </mxCell>
        <mxCell id="QQYpSkaSlUF55Vdtk0ez-247" value="实时视频" style="shape=partialRectangle;connectable=0;fillColor=none;top=0;left=0;bottom=0;right=0;align=center;spacingLeft=6;overflow=hidden;rounded=1;" parent="QQYpSkaSlUF55Vdtk0ez-138" vertex="1">
          <mxGeometry x="240" width="110" height="30" as="geometry">
            <mxRectangle width="110" height="30" as="alternateBounds" />
          </mxGeometry>
        </mxCell>
        <mxCell id="QQYpSkaSlUF55Vdtk0ez-270" style="shape=tableRow;horizontal=0;startSize=0;swimlaneHead=0;swimlaneBody=0;fillColor=none;collapsible=0;dropTarget=0;points=[[0,0.5],[1,0.5]];portConstraint=eastwest;top=0;left=0;right=0;bottom=0;rounded=1;" parent="QQYpSkaSlUF55Vdtk0ez-131" vertex="1">
          <mxGeometry y="150" width="350" height="30" as="geometry" />
        </mxCell>
        <mxCell id="QQYpSkaSlUF55Vdtk0ez-271" style="shape=partialRectangle;connectable=0;fillColor=none;top=1;left=0;bottom=0;right=0;editable=1;overflow=hidden;rounded=1;" parent="QQYpSkaSlUF55Vdtk0ez-270" vertex="1" visible="0">
          <mxGeometry width="130" height="30" as="geometry">
            <mxRectangle width="130" height="30" as="alternateBounds" />
          </mxGeometry>
        </mxCell>
        <mxCell id="QQYpSkaSlUF55Vdtk0ez-272" style="shape=partialRectangle;connectable=0;fillColor=none;top=0;left=0;bottom=0;right=0;align=center;spacingLeft=6;overflow=hidden;rounded=1;" parent="QQYpSkaSlUF55Vdtk0ez-270" vertex="1" visible="0">
          <mxGeometry x="130" width="110" height="30" as="geometry">
            <mxRectangle width="110" height="30" as="alternateBounds" />
          </mxGeometry>
        </mxCell>
        <mxCell id="QQYpSkaSlUF55Vdtk0ez-273" value="闸门开度" style="shape=partialRectangle;connectable=0;fillColor=none;top=0;left=0;bottom=1;right=0;align=center;spacingLeft=6;overflow=hidden;rounded=1;" parent="QQYpSkaSlUF55Vdtk0ez-270" vertex="1">
          <mxGeometry x="240" width="110" height="30" as="geometry">
            <mxRectangle width="110" height="30" as="alternateBounds" />
          </mxGeometry>
        </mxCell>
        <mxCell id="QQYpSkaSlUF55Vdtk0ez-174" style="shape=tableRow;horizontal=0;startSize=0;swimlaneHead=0;swimlaneBody=0;fillColor=none;collapsible=0;dropTarget=0;points=[[0,0.5],[1,0.5]];portConstraint=eastwest;top=0;left=0;right=0;bottom=0;rounded=1;" parent="QQYpSkaSlUF55Vdtk0ez-131" vertex="1">
          <mxGeometry y="180" width="350" height="30" as="geometry" />
        </mxCell>
        <mxCell id="QQYpSkaSlUF55Vdtk0ez-175" style="shape=partialRectangle;connectable=0;fillColor=none;top=1;left=0;bottom=0;right=0;editable=1;overflow=hidden;rounded=1;" parent="QQYpSkaSlUF55Vdtk0ez-174" vertex="1" visible="0">
          <mxGeometry width="130" height="30" as="geometry">
            <mxRectangle width="130" height="30" as="alternateBounds" />
          </mxGeometry>
        </mxCell>
        <mxCell id="QQYpSkaSlUF55Vdtk0ez-176" value="专题分析" style="shape=partialRectangle;connectable=0;fillColor=none;top=1;left=1;bottom=1;right=1;align=center;spacingLeft=6;overflow=hidden;rounded=1;rowspan=7;colspan=1;" parent="QQYpSkaSlUF55Vdtk0ez-174" vertex="1">
          <mxGeometry x="130" width="110" height="210" as="geometry">
            <mxRectangle width="110" height="30" as="alternateBounds" />
          </mxGeometry>
        </mxCell>
        <mxCell id="QQYpSkaSlUF55Vdtk0ez-248" value="雨污河连通分析" style="shape=partialRectangle;connectable=0;fillColor=none;top=0;left=0;bottom=0;right=0;align=center;spacingLeft=6;overflow=hidden;rounded=1;" parent="QQYpSkaSlUF55Vdtk0ez-174" vertex="1">
          <mxGeometry x="240" width="110" height="30" as="geometry">
            <mxRectangle width="110" height="30" as="alternateBounds" />
          </mxGeometry>
        </mxCell>
        <mxCell id="QQYpSkaSlUF55Vdtk0ez-290" style="shape=tableRow;horizontal=0;startSize=0;swimlaneHead=0;swimlaneBody=0;fillColor=none;collapsible=0;dropTarget=0;points=[[0,0.5],[1,0.5]];portConstraint=eastwest;top=0;left=0;right=0;bottom=0;rounded=1;" parent="QQYpSkaSlUF55Vdtk0ez-131" vertex="1">
          <mxGeometry y="210" width="350" height="30" as="geometry" />
        </mxCell>
        <mxCell id="QQYpSkaSlUF55Vdtk0ez-291" style="shape=partialRectangle;connectable=0;fillColor=none;top=1;left=0;bottom=0;right=0;editable=1;overflow=hidden;rounded=1;" parent="QQYpSkaSlUF55Vdtk0ez-290" vertex="1" visible="0">
          <mxGeometry width="130" height="30" as="geometry">
            <mxRectangle width="130" height="30" as="alternateBounds" />
          </mxGeometry>
        </mxCell>
        <mxCell id="QQYpSkaSlUF55Vdtk0ez-292" style="shape=partialRectangle;connectable=0;fillColor=none;top=0;left=0;bottom=0;right=0;align=center;spacingLeft=6;overflow=hidden;rounded=1;" parent="QQYpSkaSlUF55Vdtk0ez-290" vertex="1" visible="0">
          <mxGeometry x="130" width="110" height="30" as="geometry">
            <mxRectangle width="110" height="30" as="alternateBounds" />
          </mxGeometry>
        </mxCell>
        <mxCell id="QQYpSkaSlUF55Vdtk0ez-293" value="雨污相关性分析" style="shape=partialRectangle;connectable=0;fillColor=none;top=0;left=0;bottom=0;right=0;align=center;spacingLeft=6;overflow=hidden;rounded=1;" parent="QQYpSkaSlUF55Vdtk0ez-290" vertex="1">
          <mxGeometry x="240" width="110" height="30" as="geometry">
            <mxRectangle width="110" height="30" as="alternateBounds" />
          </mxGeometry>
        </mxCell>
        <mxCell id="QQYpSkaSlUF55Vdtk0ez-286" style="shape=tableRow;horizontal=0;startSize=0;swimlaneHead=0;swimlaneBody=0;fillColor=none;collapsible=0;dropTarget=0;points=[[0,0.5],[1,0.5]];portConstraint=eastwest;top=0;left=0;right=0;bottom=0;rounded=1;" parent="QQYpSkaSlUF55Vdtk0ez-131" vertex="1">
          <mxGeometry y="240" width="350" height="30" as="geometry" />
        </mxCell>
        <mxCell id="QQYpSkaSlUF55Vdtk0ez-287" style="shape=partialRectangle;connectable=0;fillColor=none;top=1;left=0;bottom=0;right=0;editable=1;overflow=hidden;rounded=1;" parent="QQYpSkaSlUF55Vdtk0ez-286" vertex="1" visible="0">
          <mxGeometry width="130" height="30" as="geometry">
            <mxRectangle width="130" height="30" as="alternateBounds" />
          </mxGeometry>
        </mxCell>
        <mxCell id="QQYpSkaSlUF55Vdtk0ez-288" style="shape=partialRectangle;connectable=0;fillColor=none;top=0;left=0;bottom=0;right=0;align=center;spacingLeft=6;overflow=hidden;rounded=1;" parent="QQYpSkaSlUF55Vdtk0ez-286" vertex="1" visible="0">
          <mxGeometry x="130" width="110" height="30" as="geometry">
            <mxRectangle width="110" height="30" as="alternateBounds" />
          </mxGeometry>
        </mxCell>
        <mxCell id="QQYpSkaSlUF55Vdtk0ez-289" value="管道健康分析" style="shape=partialRectangle;connectable=0;fillColor=none;top=0;left=0;bottom=0;right=0;align=center;spacingLeft=6;overflow=hidden;rounded=1;" parent="QQYpSkaSlUF55Vdtk0ez-286" vertex="1">
          <mxGeometry x="240" width="110" height="30" as="geometry">
            <mxRectangle width="110" height="30" as="alternateBounds" />
          </mxGeometry>
        </mxCell>
        <mxCell id="QQYpSkaSlUF55Vdtk0ez-282" style="shape=tableRow;horizontal=0;startSize=0;swimlaneHead=0;swimlaneBody=0;fillColor=none;collapsible=0;dropTarget=0;points=[[0,0.5],[1,0.5]];portConstraint=eastwest;top=0;left=0;right=0;bottom=0;rounded=1;" parent="QQYpSkaSlUF55Vdtk0ez-131" vertex="1">
          <mxGeometry y="270" width="350" height="30" as="geometry" />
        </mxCell>
        <mxCell id="QQYpSkaSlUF55Vdtk0ez-283" style="shape=partialRectangle;connectable=0;fillColor=none;top=1;left=0;bottom=0;right=0;editable=1;overflow=hidden;rounded=1;" parent="QQYpSkaSlUF55Vdtk0ez-282" vertex="1" visible="0">
          <mxGeometry width="130" height="30" as="geometry">
            <mxRectangle width="130" height="30" as="alternateBounds" />
          </mxGeometry>
        </mxCell>
        <mxCell id="QQYpSkaSlUF55Vdtk0ez-284" style="shape=partialRectangle;connectable=0;fillColor=none;top=0;left=0;bottom=0;right=0;align=center;spacingLeft=6;overflow=hidden;rounded=1;" parent="QQYpSkaSlUF55Vdtk0ez-282" vertex="1" visible="0">
          <mxGeometry x="130" width="110" height="30" as="geometry">
            <mxRectangle width="110" height="30" as="alternateBounds" />
          </mxGeometry>
        </mxCell>
        <mxCell id="QQYpSkaSlUF55Vdtk0ez-285" value="水位溢出告警分析" style="shape=partialRectangle;connectable=0;fillColor=none;top=0;left=0;bottom=0;right=0;align=center;spacingLeft=6;overflow=hidden;rounded=1;" parent="QQYpSkaSlUF55Vdtk0ez-282" vertex="1">
          <mxGeometry x="240" width="110" height="30" as="geometry">
            <mxRectangle width="110" height="30" as="alternateBounds" />
          </mxGeometry>
        </mxCell>
        <mxCell id="QQYpSkaSlUF55Vdtk0ez-278" style="shape=tableRow;horizontal=0;startSize=0;swimlaneHead=0;swimlaneBody=0;fillColor=none;collapsible=0;dropTarget=0;points=[[0,0.5],[1,0.5]];portConstraint=eastwest;top=0;left=0;right=0;bottom=0;rounded=1;" parent="QQYpSkaSlUF55Vdtk0ez-131" vertex="1">
          <mxGeometry y="300" width="350" height="30" as="geometry" />
        </mxCell>
        <mxCell id="QQYpSkaSlUF55Vdtk0ez-279" style="shape=partialRectangle;connectable=0;fillColor=none;top=1;left=0;bottom=0;right=0;editable=1;overflow=hidden;rounded=1;" parent="QQYpSkaSlUF55Vdtk0ez-278" vertex="1" visible="0">
          <mxGeometry width="130" height="30" as="geometry">
            <mxRectangle width="130" height="30" as="alternateBounds" />
          </mxGeometry>
        </mxCell>
        <mxCell id="QQYpSkaSlUF55Vdtk0ez-280" style="shape=partialRectangle;connectable=0;fillColor=none;top=0;left=0;bottom=0;right=0;align=center;spacingLeft=6;overflow=hidden;rounded=1;" parent="QQYpSkaSlUF55Vdtk0ez-278" vertex="1" visible="0">
          <mxGeometry x="130" width="110" height="30" as="geometry">
            <mxRectangle width="110" height="30" as="alternateBounds" />
          </mxGeometry>
        </mxCell>
        <mxCell id="QQYpSkaSlUF55Vdtk0ez-281" value="水质分析" style="shape=partialRectangle;connectable=0;fillColor=none;top=0;left=0;bottom=0;right=0;align=center;spacingLeft=6;overflow=hidden;rounded=1;" parent="QQYpSkaSlUF55Vdtk0ez-278" vertex="1">
          <mxGeometry x="240" width="110" height="30" as="geometry">
            <mxRectangle width="110" height="30" as="alternateBounds" />
          </mxGeometry>
        </mxCell>
        <mxCell id="QQYpSkaSlUF55Vdtk0ez-274" style="shape=tableRow;horizontal=0;startSize=0;swimlaneHead=0;swimlaneBody=0;fillColor=none;collapsible=0;dropTarget=0;points=[[0,0.5],[1,0.5]];portConstraint=eastwest;top=0;left=0;right=0;bottom=0;rounded=1;" parent="QQYpSkaSlUF55Vdtk0ez-131" vertex="1">
          <mxGeometry y="330" width="350" height="30" as="geometry" />
        </mxCell>
        <mxCell id="QQYpSkaSlUF55Vdtk0ez-275" style="shape=partialRectangle;connectable=0;fillColor=none;top=1;left=0;bottom=0;right=0;editable=1;overflow=hidden;rounded=1;" parent="QQYpSkaSlUF55Vdtk0ez-274" vertex="1" visible="0">
          <mxGeometry width="130" height="30" as="geometry">
            <mxRectangle width="130" height="30" as="alternateBounds" />
          </mxGeometry>
        </mxCell>
        <mxCell id="QQYpSkaSlUF55Vdtk0ez-276" style="shape=partialRectangle;connectable=0;fillColor=none;top=0;left=0;bottom=0;right=0;align=center;spacingLeft=6;overflow=hidden;rounded=1;" parent="QQYpSkaSlUF55Vdtk0ez-274" vertex="1" visible="0">
          <mxGeometry x="130" width="110" height="30" as="geometry">
            <mxRectangle width="110" height="30" as="alternateBounds" />
          </mxGeometry>
        </mxCell>
        <mxCell id="QQYpSkaSlUF55Vdtk0ez-277" value="涌容分析" style="shape=partialRectangle;connectable=0;fillColor=none;top=0;left=0;bottom=0;right=0;align=center;spacingLeft=6;overflow=hidden;rounded=1;" parent="QQYpSkaSlUF55Vdtk0ez-274" vertex="1">
          <mxGeometry x="240" width="110" height="30" as="geometry">
            <mxRectangle width="110" height="30" as="alternateBounds" />
          </mxGeometry>
        </mxCell>
        <mxCell id="QQYpSkaSlUF55Vdtk0ez-294" style="shape=tableRow;horizontal=0;startSize=0;swimlaneHead=0;swimlaneBody=0;fillColor=none;collapsible=0;dropTarget=0;points=[[0,0.5],[1,0.5]];portConstraint=eastwest;top=0;left=0;right=0;bottom=0;rounded=1;" parent="QQYpSkaSlUF55Vdtk0ez-131" vertex="1">
          <mxGeometry y="360" width="350" height="30" as="geometry" />
        </mxCell>
        <mxCell id="QQYpSkaSlUF55Vdtk0ez-295" style="shape=partialRectangle;connectable=0;fillColor=none;top=1;left=0;bottom=0;right=0;editable=1;overflow=hidden;rounded=1;" parent="QQYpSkaSlUF55Vdtk0ez-294" vertex="1" visible="0">
          <mxGeometry width="130" height="30" as="geometry">
            <mxRectangle width="130" height="30" as="alternateBounds" />
          </mxGeometry>
        </mxCell>
        <mxCell id="QQYpSkaSlUF55Vdtk0ez-296" style="shape=partialRectangle;connectable=0;fillColor=none;top=0;left=0;bottom=0;right=0;align=center;spacingLeft=6;overflow=hidden;rounded=1;" parent="QQYpSkaSlUF55Vdtk0ez-294" vertex="1" visible="0">
          <mxGeometry x="130" width="110" height="30" as="geometry">
            <mxRectangle width="110" height="30" as="alternateBounds" />
          </mxGeometry>
        </mxCell>
        <mxCell id="QQYpSkaSlUF55Vdtk0ez-297" value="专题分析报表" style="shape=partialRectangle;connectable=0;fillColor=none;top=0;left=0;bottom=1;right=0;align=center;spacingLeft=6;overflow=hidden;rounded=1;" parent="QQYpSkaSlUF55Vdtk0ez-294" vertex="1">
          <mxGeometry x="240" width="110" height="30" as="geometry">
            <mxRectangle width="110" height="30" as="alternateBounds" />
          </mxGeometry>
        </mxCell>
        <mxCell id="QQYpSkaSlUF55Vdtk0ez-177" style="shape=tableRow;horizontal=0;startSize=0;swimlaneHead=0;swimlaneBody=0;fillColor=none;collapsible=0;dropTarget=0;points=[[0,0.5],[1,0.5]];portConstraint=eastwest;top=0;left=0;right=0;bottom=0;rounded=1;" parent="QQYpSkaSlUF55Vdtk0ez-131" vertex="1">
          <mxGeometry y="390" width="350" height="30" as="geometry" />
        </mxCell>
        <mxCell id="QQYpSkaSlUF55Vdtk0ez-178" value="" style="shape=partialRectangle;connectable=0;fillColor=none;top=1;left=0;bottom=0;right=0;editable=1;overflow=hidden;rounded=1;" parent="QQYpSkaSlUF55Vdtk0ez-177" vertex="1" visible="0">
          <mxGeometry width="130" height="30" as="geometry">
            <mxRectangle width="130" height="30" as="alternateBounds" />
          </mxGeometry>
        </mxCell>
        <mxCell id="QQYpSkaSlUF55Vdtk0ez-179" value="人工上报" style="shape=partialRectangle;connectable=0;fillColor=none;top=1;left=1;bottom=1;right=1;align=center;spacingLeft=6;overflow=hidden;rounded=1;rowspan=4;colspan=1;" parent="QQYpSkaSlUF55Vdtk0ez-177" vertex="1">
          <mxGeometry x="130" width="110" height="120" as="geometry">
            <mxRectangle width="110" height="30" as="alternateBounds" />
          </mxGeometry>
        </mxCell>
        <mxCell id="QQYpSkaSlUF55Vdtk0ez-249" value="调度报告" style="shape=partialRectangle;connectable=0;fillColor=none;top=0;left=0;bottom=0;right=0;align=center;spacingLeft=6;overflow=hidden;rounded=1;" parent="QQYpSkaSlUF55Vdtk0ez-177" vertex="1">
          <mxGeometry x="240" width="110" height="30" as="geometry">
            <mxRectangle width="110" height="30" as="alternateBounds" />
          </mxGeometry>
        </mxCell>
        <mxCell id="QQYpSkaSlUF55Vdtk0ez-306" style="shape=tableRow;horizontal=0;startSize=0;swimlaneHead=0;swimlaneBody=0;fillColor=none;collapsible=0;dropTarget=0;points=[[0,0.5],[1,0.5]];portConstraint=eastwest;top=0;left=0;right=0;bottom=0;rounded=1;" parent="QQYpSkaSlUF55Vdtk0ez-131" vertex="1">
          <mxGeometry y="420" width="350" height="30" as="geometry" />
        </mxCell>
        <mxCell id="QQYpSkaSlUF55Vdtk0ez-307" style="shape=partialRectangle;connectable=0;fillColor=none;top=1;left=0;bottom=0;right=0;editable=1;overflow=hidden;rounded=1;" parent="QQYpSkaSlUF55Vdtk0ez-306" vertex="1" visible="0">
          <mxGeometry width="130" height="30" as="geometry">
            <mxRectangle width="130" height="30" as="alternateBounds" />
          </mxGeometry>
        </mxCell>
        <mxCell id="QQYpSkaSlUF55Vdtk0ez-308" style="shape=partialRectangle;connectable=0;fillColor=none;top=0;left=0;bottom=0;right=0;align=center;spacingLeft=6;overflow=hidden;rounded=1;" parent="QQYpSkaSlUF55Vdtk0ez-306" vertex="1" visible="0">
          <mxGeometry x="130" width="110" height="30" as="geometry">
            <mxRectangle width="110" height="30" as="alternateBounds" />
          </mxGeometry>
        </mxCell>
        <mxCell id="QQYpSkaSlUF55Vdtk0ez-309" value="水闸情况上报" style="shape=partialRectangle;connectable=0;fillColor=none;top=0;left=0;bottom=0;right=0;align=center;spacingLeft=6;overflow=hidden;rounded=1;" parent="QQYpSkaSlUF55Vdtk0ez-306" vertex="1">
          <mxGeometry x="240" width="110" height="30" as="geometry">
            <mxRectangle width="110" height="30" as="alternateBounds" />
          </mxGeometry>
        </mxCell>
        <mxCell id="QQYpSkaSlUF55Vdtk0ez-302" style="shape=tableRow;horizontal=0;startSize=0;swimlaneHead=0;swimlaneBody=0;fillColor=none;collapsible=0;dropTarget=0;points=[[0,0.5],[1,0.5]];portConstraint=eastwest;top=0;left=0;right=0;bottom=0;rounded=1;" parent="QQYpSkaSlUF55Vdtk0ez-131" vertex="1">
          <mxGeometry y="450" width="350" height="30" as="geometry" />
        </mxCell>
        <mxCell id="QQYpSkaSlUF55Vdtk0ez-303" style="shape=partialRectangle;connectable=0;fillColor=none;top=1;left=0;bottom=0;right=0;editable=1;overflow=hidden;rounded=1;" parent="QQYpSkaSlUF55Vdtk0ez-302" vertex="1" visible="0">
          <mxGeometry width="130" height="30" as="geometry">
            <mxRectangle width="130" height="30" as="alternateBounds" />
          </mxGeometry>
        </mxCell>
        <mxCell id="QQYpSkaSlUF55Vdtk0ez-304" style="shape=partialRectangle;connectable=0;fillColor=none;top=0;left=0;bottom=0;right=0;align=center;spacingLeft=6;overflow=hidden;rounded=1;" parent="QQYpSkaSlUF55Vdtk0ez-302" vertex="1" visible="0">
          <mxGeometry x="130" width="110" height="30" as="geometry">
            <mxRectangle width="110" height="30" as="alternateBounds" />
          </mxGeometry>
        </mxCell>
        <mxCell id="QQYpSkaSlUF55Vdtk0ez-305" value="水闸信息" style="shape=partialRectangle;connectable=0;fillColor=none;top=0;left=0;bottom=0;right=0;align=center;spacingLeft=6;overflow=hidden;rounded=1;" parent="QQYpSkaSlUF55Vdtk0ez-302" vertex="1">
          <mxGeometry x="240" width="110" height="30" as="geometry">
            <mxRectangle width="110" height="30" as="alternateBounds" />
          </mxGeometry>
        </mxCell>
        <mxCell id="QQYpSkaSlUF55Vdtk0ez-298" style="shape=tableRow;horizontal=0;startSize=0;swimlaneHead=0;swimlaneBody=0;fillColor=none;collapsible=0;dropTarget=0;points=[[0,0.5],[1,0.5]];portConstraint=eastwest;top=0;left=0;right=0;bottom=0;rounded=1;" parent="QQYpSkaSlUF55Vdtk0ez-131" vertex="1">
          <mxGeometry y="480" width="350" height="30" as="geometry" />
        </mxCell>
        <mxCell id="QQYpSkaSlUF55Vdtk0ez-299" style="shape=partialRectangle;connectable=0;fillColor=none;top=1;left=0;bottom=0;right=0;editable=1;overflow=hidden;rounded=1;" parent="QQYpSkaSlUF55Vdtk0ez-298" vertex="1" visible="0">
          <mxGeometry width="130" height="30" as="geometry">
            <mxRectangle width="130" height="30" as="alternateBounds" />
          </mxGeometry>
        </mxCell>
        <mxCell id="QQYpSkaSlUF55Vdtk0ez-300" style="shape=partialRectangle;connectable=0;fillColor=none;top=0;left=0;bottom=0;right=0;align=center;spacingLeft=6;overflow=hidden;rounded=1;" parent="QQYpSkaSlUF55Vdtk0ez-298" vertex="1" visible="0">
          <mxGeometry x="130" width="110" height="30" as="geometry">
            <mxRectangle width="110" height="30" as="alternateBounds" />
          </mxGeometry>
        </mxCell>
        <mxCell id="QQYpSkaSlUF55Vdtk0ez-301" value="井盖信息" style="shape=partialRectangle;connectable=0;fillColor=none;top=0;left=0;bottom=1;right=0;align=center;spacingLeft=6;overflow=hidden;rounded=1;" parent="QQYpSkaSlUF55Vdtk0ez-298" vertex="1">
          <mxGeometry x="240" width="110" height="30" as="geometry">
            <mxRectangle width="110" height="30" as="alternateBounds" />
          </mxGeometry>
        </mxCell>
        <mxCell id="QQYpSkaSlUF55Vdtk0ez-262" style="shape=tableRow;horizontal=0;startSize=0;swimlaneHead=0;swimlaneBody=0;fillColor=none;collapsible=0;dropTarget=0;points=[[0,0.5],[1,0.5]];portConstraint=eastwest;top=0;left=0;right=0;bottom=0;rounded=1;" parent="QQYpSkaSlUF55Vdtk0ez-131" vertex="1">
          <mxGeometry y="510" width="350" height="40" as="geometry" />
        </mxCell>
        <mxCell id="QQYpSkaSlUF55Vdtk0ez-263" style="shape=partialRectangle;connectable=0;fillColor=none;top=1;left=0;bottom=0;right=0;editable=1;overflow=hidden;rounded=1;" parent="QQYpSkaSlUF55Vdtk0ez-262" vertex="1" visible="0">
          <mxGeometry width="130" height="40" as="geometry">
            <mxRectangle width="130" height="40" as="alternateBounds" />
          </mxGeometry>
        </mxCell>
        <mxCell id="QQYpSkaSlUF55Vdtk0ez-264" value="站点管理" style="shape=partialRectangle;connectable=0;fillColor=none;top=1;left=1;bottom=1;right=1;align=center;spacingLeft=6;overflow=hidden;rounded=1;rowspan=8;colspan=1;" parent="QQYpSkaSlUF55Vdtk0ez-262" vertex="1">
          <mxGeometry x="130" width="110" height="320" as="geometry">
            <mxRectangle width="110" height="40" as="alternateBounds" />
          </mxGeometry>
        </mxCell>
        <mxCell id="QQYpSkaSlUF55Vdtk0ez-265" value="站点" style="shape=partialRectangle;connectable=0;fillColor=none;top=0;left=0;bottom=0;right=0;align=center;spacingLeft=6;overflow=hidden;rounded=1;" parent="QQYpSkaSlUF55Vdtk0ez-262" vertex="1">
          <mxGeometry x="240" width="110" height="40" as="geometry">
            <mxRectangle width="110" height="40" as="alternateBounds" />
          </mxGeometry>
        </mxCell>
        <mxCell id="QQYpSkaSlUF55Vdtk0ez-334" style="shape=tableRow;horizontal=0;startSize=0;swimlaneHead=0;swimlaneBody=0;fillColor=none;collapsible=0;dropTarget=0;points=[[0,0.5],[1,0.5]];portConstraint=eastwest;top=0;left=0;right=0;bottom=0;rounded=1;" parent="QQYpSkaSlUF55Vdtk0ez-131" vertex="1">
          <mxGeometry y="550" width="350" height="40" as="geometry" />
        </mxCell>
        <mxCell id="QQYpSkaSlUF55Vdtk0ez-335" style="shape=partialRectangle;connectable=0;fillColor=none;top=1;left=0;bottom=0;right=0;editable=1;overflow=hidden;rounded=1;" parent="QQYpSkaSlUF55Vdtk0ez-334" vertex="1" visible="0">
          <mxGeometry width="130" height="40" as="geometry">
            <mxRectangle width="130" height="40" as="alternateBounds" />
          </mxGeometry>
        </mxCell>
        <mxCell id="QQYpSkaSlUF55Vdtk0ez-336" style="shape=partialRectangle;connectable=0;fillColor=none;top=0;left=0;bottom=0;right=0;align=center;spacingLeft=6;overflow=hidden;rounded=1;" parent="QQYpSkaSlUF55Vdtk0ez-334" vertex="1" visible="0">
          <mxGeometry x="130" width="110" height="40" as="geometry">
            <mxRectangle width="110" height="40" as="alternateBounds" />
          </mxGeometry>
        </mxCell>
        <mxCell id="QQYpSkaSlUF55Vdtk0ez-337" value="设备" style="shape=partialRectangle;connectable=0;fillColor=none;top=0;left=0;bottom=0;right=0;align=center;spacingLeft=6;overflow=hidden;rounded=1;" parent="QQYpSkaSlUF55Vdtk0ez-334" vertex="1">
          <mxGeometry x="240" width="110" height="40" as="geometry">
            <mxRectangle width="110" height="40" as="alternateBounds" />
          </mxGeometry>
        </mxCell>
        <mxCell id="QQYpSkaSlUF55Vdtk0ez-330" style="shape=tableRow;horizontal=0;startSize=0;swimlaneHead=0;swimlaneBody=0;fillColor=none;collapsible=0;dropTarget=0;points=[[0,0.5],[1,0.5]];portConstraint=eastwest;top=0;left=0;right=0;bottom=0;rounded=1;" parent="QQYpSkaSlUF55Vdtk0ez-131" vertex="1">
          <mxGeometry y="590" width="350" height="40" as="geometry" />
        </mxCell>
        <mxCell id="QQYpSkaSlUF55Vdtk0ez-331" style="shape=partialRectangle;connectable=0;fillColor=none;top=1;left=0;bottom=0;right=0;editable=1;overflow=hidden;rounded=1;" parent="QQYpSkaSlUF55Vdtk0ez-330" vertex="1" visible="0">
          <mxGeometry width="130" height="40" as="geometry">
            <mxRectangle width="130" height="40" as="alternateBounds" />
          </mxGeometry>
        </mxCell>
        <mxCell id="QQYpSkaSlUF55Vdtk0ez-332" style="shape=partialRectangle;connectable=0;fillColor=none;top=0;left=0;bottom=0;right=0;align=center;spacingLeft=6;overflow=hidden;rounded=1;" parent="QQYpSkaSlUF55Vdtk0ez-330" vertex="1" visible="0">
          <mxGeometry x="130" width="110" height="40" as="geometry">
            <mxRectangle width="110" height="40" as="alternateBounds" />
          </mxGeometry>
        </mxCell>
        <mxCell id="QQYpSkaSlUF55Vdtk0ez-333" value="告警管理" style="shape=partialRectangle;connectable=0;fillColor=none;top=0;left=0;bottom=0;right=0;align=center;spacingLeft=6;overflow=hidden;rounded=1;" parent="QQYpSkaSlUF55Vdtk0ez-330" vertex="1">
          <mxGeometry x="240" width="110" height="40" as="geometry">
            <mxRectangle width="110" height="40" as="alternateBounds" />
          </mxGeometry>
        </mxCell>
        <mxCell id="QQYpSkaSlUF55Vdtk0ez-326" style="shape=tableRow;horizontal=0;startSize=0;swimlaneHead=0;swimlaneBody=0;fillColor=none;collapsible=0;dropTarget=0;points=[[0,0.5],[1,0.5]];portConstraint=eastwest;top=0;left=0;right=0;bottom=0;rounded=1;" parent="QQYpSkaSlUF55Vdtk0ez-131" vertex="1">
          <mxGeometry y="630" width="350" height="40" as="geometry" />
        </mxCell>
        <mxCell id="QQYpSkaSlUF55Vdtk0ez-327" style="shape=partialRectangle;connectable=0;fillColor=none;top=1;left=0;bottom=0;right=0;editable=1;overflow=hidden;rounded=1;" parent="QQYpSkaSlUF55Vdtk0ez-326" vertex="1" visible="0">
          <mxGeometry width="130" height="40" as="geometry">
            <mxRectangle width="130" height="40" as="alternateBounds" />
          </mxGeometry>
        </mxCell>
        <mxCell id="QQYpSkaSlUF55Vdtk0ez-328" style="shape=partialRectangle;connectable=0;fillColor=none;top=0;left=0;bottom=0;right=0;align=center;spacingLeft=6;overflow=hidden;rounded=1;" parent="QQYpSkaSlUF55Vdtk0ez-326" vertex="1" visible="0">
          <mxGeometry x="130" width="110" height="40" as="geometry">
            <mxRectangle width="110" height="40" as="alternateBounds" />
          </mxGeometry>
        </mxCell>
        <mxCell id="QQYpSkaSlUF55Vdtk0ez-329" value="图表管理" style="shape=partialRectangle;connectable=0;fillColor=none;top=0;left=0;bottom=0;right=0;align=center;spacingLeft=6;overflow=hidden;rounded=1;" parent="QQYpSkaSlUF55Vdtk0ez-326" vertex="1">
          <mxGeometry x="240" width="110" height="40" as="geometry">
            <mxRectangle width="110" height="40" as="alternateBounds" />
          </mxGeometry>
        </mxCell>
        <mxCell id="QQYpSkaSlUF55Vdtk0ez-322" style="shape=tableRow;horizontal=0;startSize=0;swimlaneHead=0;swimlaneBody=0;fillColor=none;collapsible=0;dropTarget=0;points=[[0,0.5],[1,0.5]];portConstraint=eastwest;top=0;left=0;right=0;bottom=0;rounded=1;" parent="QQYpSkaSlUF55Vdtk0ez-131" vertex="1">
          <mxGeometry y="670" width="350" height="40" as="geometry" />
        </mxCell>
        <mxCell id="QQYpSkaSlUF55Vdtk0ez-323" style="shape=partialRectangle;connectable=0;fillColor=none;top=1;left=0;bottom=0;right=0;editable=1;overflow=hidden;rounded=1;" parent="QQYpSkaSlUF55Vdtk0ez-322" vertex="1" visible="0">
          <mxGeometry width="130" height="40" as="geometry">
            <mxRectangle width="130" height="40" as="alternateBounds" />
          </mxGeometry>
        </mxCell>
        <mxCell id="QQYpSkaSlUF55Vdtk0ez-324" style="shape=partialRectangle;connectable=0;fillColor=none;top=0;left=0;bottom=0;right=0;align=center;spacingLeft=6;overflow=hidden;rounded=1;" parent="QQYpSkaSlUF55Vdtk0ez-322" vertex="1" visible="0">
          <mxGeometry x="130" width="110" height="40" as="geometry">
            <mxRectangle width="110" height="40" as="alternateBounds" />
          </mxGeometry>
        </mxCell>
        <mxCell id="QQYpSkaSlUF55Vdtk0ez-325" value="监测项目管理" style="shape=partialRectangle;connectable=0;fillColor=none;top=0;left=0;bottom=0;right=0;align=center;spacingLeft=6;overflow=hidden;rounded=1;" parent="QQYpSkaSlUF55Vdtk0ez-322" vertex="1">
          <mxGeometry x="240" width="110" height="40" as="geometry">
            <mxRectangle width="110" height="40" as="alternateBounds" />
          </mxGeometry>
        </mxCell>
        <mxCell id="QQYpSkaSlUF55Vdtk0ez-318" style="shape=tableRow;horizontal=0;startSize=0;swimlaneHead=0;swimlaneBody=0;fillColor=none;collapsible=0;dropTarget=0;points=[[0,0.5],[1,0.5]];portConstraint=eastwest;top=0;left=0;right=0;bottom=0;rounded=1;" parent="QQYpSkaSlUF55Vdtk0ez-131" vertex="1">
          <mxGeometry y="710" width="350" height="40" as="geometry" />
        </mxCell>
        <mxCell id="QQYpSkaSlUF55Vdtk0ez-319" style="shape=partialRectangle;connectable=0;fillColor=none;top=1;left=0;bottom=0;right=0;editable=1;overflow=hidden;rounded=1;" parent="QQYpSkaSlUF55Vdtk0ez-318" vertex="1" visible="0">
          <mxGeometry width="130" height="40" as="geometry">
            <mxRectangle width="130" height="40" as="alternateBounds" />
          </mxGeometry>
        </mxCell>
        <mxCell id="QQYpSkaSlUF55Vdtk0ez-320" style="shape=partialRectangle;connectable=0;fillColor=none;top=0;left=0;bottom=0;right=0;align=center;spacingLeft=6;overflow=hidden;rounded=1;" parent="QQYpSkaSlUF55Vdtk0ez-318" vertex="1" visible="0">
          <mxGeometry x="130" width="110" height="40" as="geometry">
            <mxRectangle width="110" height="40" as="alternateBounds" />
          </mxGeometry>
        </mxCell>
        <mxCell id="QQYpSkaSlUF55Vdtk0ez-321" value="水网管理" style="shape=partialRectangle;connectable=0;fillColor=none;top=0;left=0;bottom=0;right=0;align=center;spacingLeft=6;overflow=hidden;rounded=1;" parent="QQYpSkaSlUF55Vdtk0ez-318" vertex="1">
          <mxGeometry x="240" width="110" height="40" as="geometry">
            <mxRectangle width="110" height="40" as="alternateBounds" />
          </mxGeometry>
        </mxCell>
        <mxCell id="QQYpSkaSlUF55Vdtk0ez-314" style="shape=tableRow;horizontal=0;startSize=0;swimlaneHead=0;swimlaneBody=0;fillColor=none;collapsible=0;dropTarget=0;points=[[0,0.5],[1,0.5]];portConstraint=eastwest;top=0;left=0;right=0;bottom=0;rounded=1;" parent="QQYpSkaSlUF55Vdtk0ez-131" vertex="1">
          <mxGeometry y="750" width="350" height="40" as="geometry" />
        </mxCell>
        <mxCell id="QQYpSkaSlUF55Vdtk0ez-315" style="shape=partialRectangle;connectable=0;fillColor=none;top=1;left=0;bottom=0;right=0;editable=1;overflow=hidden;rounded=1;" parent="QQYpSkaSlUF55Vdtk0ez-314" vertex="1" visible="0">
          <mxGeometry width="130" height="40" as="geometry">
            <mxRectangle width="130" height="40" as="alternateBounds" />
          </mxGeometry>
        </mxCell>
        <mxCell id="QQYpSkaSlUF55Vdtk0ez-316" style="shape=partialRectangle;connectable=0;fillColor=none;top=0;left=0;bottom=0;right=0;align=center;spacingLeft=6;overflow=hidden;rounded=1;" parent="QQYpSkaSlUF55Vdtk0ez-314" vertex="1" visible="0">
          <mxGeometry x="130" width="110" height="40" as="geometry">
            <mxRectangle width="110" height="40" as="alternateBounds" />
          </mxGeometry>
        </mxCell>
        <mxCell id="QQYpSkaSlUF55Vdtk0ez-317" value="流程管理" style="shape=partialRectangle;connectable=0;fillColor=none;top=0;left=0;bottom=0;right=0;align=center;spacingLeft=6;overflow=hidden;rounded=1;" parent="QQYpSkaSlUF55Vdtk0ez-314" vertex="1">
          <mxGeometry x="240" width="110" height="40" as="geometry">
            <mxRectangle width="110" height="40" as="alternateBounds" />
          </mxGeometry>
        </mxCell>
        <mxCell id="QQYpSkaSlUF55Vdtk0ez-310" style="shape=tableRow;horizontal=0;startSize=0;swimlaneHead=0;swimlaneBody=0;fillColor=none;collapsible=0;dropTarget=0;points=[[0,0.5],[1,0.5]];portConstraint=eastwest;top=0;left=0;right=0;bottom=0;rounded=1;" parent="QQYpSkaSlUF55Vdtk0ez-131" vertex="1">
          <mxGeometry y="790" width="350" height="40" as="geometry" />
        </mxCell>
        <mxCell id="QQYpSkaSlUF55Vdtk0ez-311" style="shape=partialRectangle;connectable=0;fillColor=none;top=1;left=0;bottom=0;right=0;editable=1;overflow=hidden;rounded=1;" parent="QQYpSkaSlUF55Vdtk0ez-310" vertex="1" visible="0">
          <mxGeometry width="130" height="40" as="geometry">
            <mxRectangle width="130" height="40" as="alternateBounds" />
          </mxGeometry>
        </mxCell>
        <mxCell id="QQYpSkaSlUF55Vdtk0ez-312" style="shape=partialRectangle;connectable=0;fillColor=none;top=0;left=0;bottom=0;right=0;align=center;spacingLeft=6;overflow=hidden;rounded=1;" parent="QQYpSkaSlUF55Vdtk0ez-310" vertex="1" visible="0">
          <mxGeometry x="130" width="110" height="40" as="geometry">
            <mxRectangle width="110" height="40" as="alternateBounds" />
          </mxGeometry>
        </mxCell>
        <mxCell id="QQYpSkaSlUF55Vdtk0ez-313" value="订阅管理" style="shape=partialRectangle;connectable=0;fillColor=none;top=0;left=0;bottom=1;right=0;align=center;spacingLeft=6;overflow=hidden;rounded=1;" parent="QQYpSkaSlUF55Vdtk0ez-310" vertex="1">
          <mxGeometry x="240" width="110" height="40" as="geometry">
            <mxRectangle width="110" height="40" as="alternateBounds" />
          </mxGeometry>
        </mxCell>
        <mxCell id="QQYpSkaSlUF55Vdtk0ez-258" style="shape=tableRow;horizontal=0;startSize=0;swimlaneHead=0;swimlaneBody=0;fillColor=none;collapsible=0;dropTarget=0;points=[[0,0.5],[1,0.5]];portConstraint=eastwest;top=0;left=0;right=0;bottom=0;rounded=1;" parent="QQYpSkaSlUF55Vdtk0ez-131" vertex="1">
          <mxGeometry y="830" width="350" height="30" as="geometry" />
        </mxCell>
        <mxCell id="QQYpSkaSlUF55Vdtk0ez-259" style="shape=partialRectangle;connectable=0;fillColor=none;top=1;left=0;bottom=0;right=0;editable=1;overflow=hidden;rounded=1;" parent="QQYpSkaSlUF55Vdtk0ez-258" vertex="1" visible="0">
          <mxGeometry width="130" height="30" as="geometry">
            <mxRectangle width="130" height="30" as="alternateBounds" />
          </mxGeometry>
        </mxCell>
        <mxCell id="QQYpSkaSlUF55Vdtk0ez-260" value="数据管理" style="shape=partialRectangle;connectable=0;fillColor=none;top=1;left=1;bottom=1;right=1;align=center;spacingLeft=6;overflow=hidden;rounded=1;rowspan=2;colspan=1;" parent="QQYpSkaSlUF55Vdtk0ez-258" vertex="1">
          <mxGeometry x="130" width="110" height="60" as="geometry">
            <mxRectangle width="110" height="30" as="alternateBounds" />
          </mxGeometry>
        </mxCell>
        <mxCell id="QQYpSkaSlUF55Vdtk0ez-261" value="站点数据" style="shape=partialRectangle;connectable=0;fillColor=none;top=0;left=0;bottom=0;right=0;align=center;spacingLeft=6;overflow=hidden;rounded=1;" parent="QQYpSkaSlUF55Vdtk0ez-258" vertex="1">
          <mxGeometry x="240" width="110" height="30" as="geometry">
            <mxRectangle width="110" height="30" as="alternateBounds" />
          </mxGeometry>
        </mxCell>
        <mxCell id="QQYpSkaSlUF55Vdtk0ez-338" style="shape=tableRow;horizontal=0;startSize=0;swimlaneHead=0;swimlaneBody=0;fillColor=none;collapsible=0;dropTarget=0;points=[[0,0.5],[1,0.5]];portConstraint=eastwest;top=0;left=0;right=0;bottom=0;rounded=1;" parent="QQYpSkaSlUF55Vdtk0ez-131" vertex="1">
          <mxGeometry y="860" width="350" height="30" as="geometry" />
        </mxCell>
        <mxCell id="QQYpSkaSlUF55Vdtk0ez-339" style="shape=partialRectangle;connectable=0;fillColor=none;top=1;left=0;bottom=0;right=0;editable=1;overflow=hidden;rounded=1;" parent="QQYpSkaSlUF55Vdtk0ez-338" vertex="1" visible="0">
          <mxGeometry width="130" height="30" as="geometry">
            <mxRectangle width="130" height="30" as="alternateBounds" />
          </mxGeometry>
        </mxCell>
        <mxCell id="QQYpSkaSlUF55Vdtk0ez-340" style="shape=partialRectangle;connectable=0;fillColor=none;top=0;left=0;bottom=0;right=0;align=center;spacingLeft=6;overflow=hidden;rounded=1;" parent="QQYpSkaSlUF55Vdtk0ez-338" vertex="1" visible="0">
          <mxGeometry x="130" width="110" height="30" as="geometry">
            <mxRectangle width="110" height="30" as="alternateBounds" />
          </mxGeometry>
        </mxCell>
        <mxCell id="QQYpSkaSlUF55Vdtk0ez-341" value="数据工具" style="shape=partialRectangle;connectable=0;fillColor=none;top=0;left=0;bottom=1;right=0;align=center;spacingLeft=6;overflow=hidden;rounded=1;" parent="QQYpSkaSlUF55Vdtk0ez-338" vertex="1">
          <mxGeometry x="240" width="110" height="30" as="geometry">
            <mxRectangle width="110" height="30" as="alternateBounds" />
          </mxGeometry>
        </mxCell>
        <mxCell id="QQYpSkaSlUF55Vdtk0ez-254" style="shape=tableRow;horizontal=0;startSize=0;swimlaneHead=0;swimlaneBody=0;fillColor=none;collapsible=0;dropTarget=0;points=[[0,0.5],[1,0.5]];portConstraint=eastwest;top=0;left=0;right=0;bottom=0;rounded=1;" parent="QQYpSkaSlUF55Vdtk0ez-131" vertex="1">
          <mxGeometry y="890" width="350" height="30" as="geometry" />
        </mxCell>
        <mxCell id="QQYpSkaSlUF55Vdtk0ez-255" style="shape=partialRectangle;connectable=0;fillColor=none;top=1;left=0;bottom=0;right=0;editable=1;overflow=hidden;rounded=1;" parent="QQYpSkaSlUF55Vdtk0ez-254" vertex="1" visible="0">
          <mxGeometry width="130" height="30" as="geometry">
            <mxRectangle width="130" height="30" as="alternateBounds" />
          </mxGeometry>
        </mxCell>
        <mxCell id="QQYpSkaSlUF55Vdtk0ez-256" value="运维" style="shape=partialRectangle;connectable=0;fillColor=none;top=1;left=1;bottom=1;right=1;align=center;spacingLeft=6;overflow=hidden;rounded=1;" parent="QQYpSkaSlUF55Vdtk0ez-254" vertex="1">
          <mxGeometry x="130" width="110" height="30" as="geometry">
            <mxRectangle width="110" height="30" as="alternateBounds" />
          </mxGeometry>
        </mxCell>
        <mxCell id="QQYpSkaSlUF55Vdtk0ez-257" value="站点监控" style="shape=partialRectangle;connectable=0;fillColor=none;top=0;left=0;bottom=1;right=0;align=center;spacingLeft=6;overflow=hidden;rounded=1;" parent="QQYpSkaSlUF55Vdtk0ez-254" vertex="1">
          <mxGeometry x="240" width="110" height="30" as="geometry">
            <mxRectangle width="110" height="30" as="alternateBounds" />
          </mxGeometry>
        </mxCell>
        <mxCell id="QQYpSkaSlUF55Vdtk0ez-250" style="shape=tableRow;horizontal=0;startSize=0;swimlaneHead=0;swimlaneBody=0;fillColor=none;collapsible=0;dropTarget=0;points=[[0,0.5],[1,0.5]];portConstraint=eastwest;top=0;left=0;right=0;bottom=0;rounded=1;" parent="QQYpSkaSlUF55Vdtk0ez-131" vertex="1">
          <mxGeometry y="920" width="350" height="30" as="geometry" />
        </mxCell>
        <mxCell id="QQYpSkaSlUF55Vdtk0ez-251" style="shape=partialRectangle;connectable=0;fillColor=none;top=1;left=0;bottom=0;right=0;editable=1;overflow=hidden;rounded=1;" parent="QQYpSkaSlUF55Vdtk0ez-250" vertex="1" visible="0">
          <mxGeometry width="130" height="30" as="geometry">
            <mxRectangle width="130" height="30" as="alternateBounds" />
          </mxGeometry>
        </mxCell>
        <mxCell id="QQYpSkaSlUF55Vdtk0ez-252" value="用户权限管理" style="shape=partialRectangle;connectable=0;fillColor=none;top=1;left=1;bottom=1;right=1;align=center;spacingLeft=6;overflow=hidden;rounded=1;rowspan=3;colspan=1;" parent="QQYpSkaSlUF55Vdtk0ez-250" vertex="1">
          <mxGeometry x="130" width="110" height="90" as="geometry">
            <mxRectangle width="110" height="30" as="alternateBounds" />
          </mxGeometry>
        </mxCell>
        <mxCell id="QQYpSkaSlUF55Vdtk0ez-253" value="用户管理" style="shape=partialRectangle;connectable=0;fillColor=none;top=0;left=0;bottom=0;right=0;align=center;spacingLeft=6;overflow=hidden;rounded=1;" parent="QQYpSkaSlUF55Vdtk0ez-250" vertex="1">
          <mxGeometry x="240" width="110" height="30" as="geometry">
            <mxRectangle width="110" height="30" as="alternateBounds" />
          </mxGeometry>
        </mxCell>
        <mxCell id="QQYpSkaSlUF55Vdtk0ez-346" style="shape=tableRow;horizontal=0;startSize=0;swimlaneHead=0;swimlaneBody=0;fillColor=none;collapsible=0;dropTarget=0;points=[[0,0.5],[1,0.5]];portConstraint=eastwest;top=0;left=0;right=0;bottom=0;rounded=1;" parent="QQYpSkaSlUF55Vdtk0ez-131" vertex="1">
          <mxGeometry y="950" width="350" height="30" as="geometry" />
        </mxCell>
        <mxCell id="QQYpSkaSlUF55Vdtk0ez-347" style="shape=partialRectangle;connectable=0;fillColor=none;top=1;left=0;bottom=0;right=0;editable=1;overflow=hidden;rounded=1;" parent="QQYpSkaSlUF55Vdtk0ez-346" vertex="1" visible="0">
          <mxGeometry width="130" height="30" as="geometry">
            <mxRectangle width="130" height="30" as="alternateBounds" />
          </mxGeometry>
        </mxCell>
        <mxCell id="QQYpSkaSlUF55Vdtk0ez-348" style="shape=partialRectangle;connectable=0;fillColor=none;top=0;left=0;bottom=0;right=0;align=center;spacingLeft=6;overflow=hidden;rounded=1;" parent="QQYpSkaSlUF55Vdtk0ez-346" vertex="1" visible="0">
          <mxGeometry x="130" width="110" height="30" as="geometry">
            <mxRectangle width="110" height="30" as="alternateBounds" />
          </mxGeometry>
        </mxCell>
        <mxCell id="QQYpSkaSlUF55Vdtk0ez-349" value="角色管理" style="shape=partialRectangle;connectable=0;fillColor=none;top=0;left=0;bottom=0;right=0;align=center;spacingLeft=6;overflow=hidden;rounded=1;" parent="QQYpSkaSlUF55Vdtk0ez-346" vertex="1">
          <mxGeometry x="240" width="110" height="30" as="geometry">
            <mxRectangle width="110" height="30" as="alternateBounds" />
          </mxGeometry>
        </mxCell>
        <mxCell id="QQYpSkaSlUF55Vdtk0ez-342" style="shape=tableRow;horizontal=0;startSize=0;swimlaneHead=0;swimlaneBody=0;fillColor=none;collapsible=0;dropTarget=0;points=[[0,0.5],[1,0.5]];portConstraint=eastwest;top=0;left=0;right=0;bottom=0;rounded=1;" parent="QQYpSkaSlUF55Vdtk0ez-131" vertex="1">
          <mxGeometry y="980" width="350" height="30" as="geometry" />
        </mxCell>
        <mxCell id="QQYpSkaSlUF55Vdtk0ez-343" style="shape=partialRectangle;connectable=0;fillColor=none;top=1;left=0;bottom=0;right=0;editable=1;overflow=hidden;rounded=1;" parent="QQYpSkaSlUF55Vdtk0ez-342" vertex="1" visible="0">
          <mxGeometry width="130" height="30" as="geometry">
            <mxRectangle width="130" height="30" as="alternateBounds" />
          </mxGeometry>
        </mxCell>
        <mxCell id="QQYpSkaSlUF55Vdtk0ez-344" style="shape=partialRectangle;connectable=0;fillColor=none;top=0;left=0;bottom=0;right=0;align=center;spacingLeft=6;overflow=hidden;rounded=1;" parent="QQYpSkaSlUF55Vdtk0ez-342" vertex="1" visible="0">
          <mxGeometry x="130" width="110" height="30" as="geometry">
            <mxRectangle width="110" height="30" as="alternateBounds" />
          </mxGeometry>
        </mxCell>
        <mxCell id="QQYpSkaSlUF55Vdtk0ez-345" value="访问管理" style="shape=partialRectangle;connectable=0;fillColor=none;top=0;left=0;bottom=1;right=0;align=center;spacingLeft=6;overflow=hidden;rounded=1;" parent="QQYpSkaSlUF55Vdtk0ez-342" vertex="1">
          <mxGeometry x="240" width="110" height="30" as="geometry">
            <mxRectangle width="110" height="30" as="alternateBounds" />
          </mxGeometry>
        </mxCell>
        <mxCell id="QQYpSkaSlUF55Vdtk0ez-266" style="shape=tableRow;horizontal=0;startSize=0;swimlaneHead=0;swimlaneBody=0;fillColor=none;collapsible=0;dropTarget=0;points=[[0,0.5],[1,0.5]];portConstraint=eastwest;top=0;left=0;right=0;bottom=0;rounded=1;" parent="QQYpSkaSlUF55Vdtk0ez-131" vertex="1">
          <mxGeometry y="1010" width="350" height="30" as="geometry" />
        </mxCell>
        <mxCell id="QQYpSkaSlUF55Vdtk0ez-267" style="shape=partialRectangle;connectable=0;fillColor=none;top=1;left=0;bottom=0;right=0;editable=1;overflow=hidden;rounded=1;" parent="QQYpSkaSlUF55Vdtk0ez-266" vertex="1" visible="0">
          <mxGeometry width="130" height="30" as="geometry">
            <mxRectangle width="130" height="30" as="alternateBounds" />
          </mxGeometry>
        </mxCell>
        <mxCell id="QQYpSkaSlUF55Vdtk0ez-268" value="系统管理" style="shape=partialRectangle;connectable=0;fillColor=none;top=1;left=1;bottom=1;right=1;align=center;spacingLeft=6;overflow=hidden;rounded=1;rowspan=5;colspan=1;" parent="QQYpSkaSlUF55Vdtk0ez-266" vertex="1">
          <mxGeometry x="130" width="110" height="150" as="geometry">
            <mxRectangle width="110" height="30" as="alternateBounds" />
          </mxGeometry>
        </mxCell>
        <mxCell id="QQYpSkaSlUF55Vdtk0ez-269" value="通知管理" style="shape=partialRectangle;connectable=0;fillColor=none;top=0;left=0;bottom=0;right=0;align=center;spacingLeft=6;overflow=hidden;rounded=1;" parent="QQYpSkaSlUF55Vdtk0ez-266" vertex="1">
          <mxGeometry x="240" width="110" height="30" as="geometry">
            <mxRectangle width="110" height="30" as="alternateBounds" />
          </mxGeometry>
        </mxCell>
        <mxCell id="QQYpSkaSlUF55Vdtk0ez-362" style="shape=tableRow;horizontal=0;startSize=0;swimlaneHead=0;swimlaneBody=0;fillColor=none;collapsible=0;dropTarget=0;points=[[0,0.5],[1,0.5]];portConstraint=eastwest;top=0;left=0;right=0;bottom=0;rounded=1;" parent="QQYpSkaSlUF55Vdtk0ez-131" vertex="1">
          <mxGeometry y="1040" width="350" height="30" as="geometry" />
        </mxCell>
        <mxCell id="QQYpSkaSlUF55Vdtk0ez-363" style="shape=partialRectangle;connectable=0;fillColor=none;top=1;left=0;bottom=0;right=0;editable=1;overflow=hidden;rounded=1;" parent="QQYpSkaSlUF55Vdtk0ez-362" vertex="1" visible="0">
          <mxGeometry width="130" height="30" as="geometry">
            <mxRectangle width="130" height="30" as="alternateBounds" />
          </mxGeometry>
        </mxCell>
        <mxCell id="QQYpSkaSlUF55Vdtk0ez-364" style="shape=partialRectangle;connectable=0;fillColor=none;top=0;left=0;bottom=0;right=0;align=center;spacingLeft=6;overflow=hidden;rounded=1;" parent="QQYpSkaSlUF55Vdtk0ez-362" vertex="1" visible="0">
          <mxGeometry x="130" width="110" height="30" as="geometry">
            <mxRectangle width="110" height="30" as="alternateBounds" />
          </mxGeometry>
        </mxCell>
        <mxCell id="QQYpSkaSlUF55Vdtk0ez-365" value="字典管理" style="shape=partialRectangle;connectable=0;fillColor=none;top=0;left=0;bottom=0;right=0;align=center;spacingLeft=6;overflow=hidden;rounded=1;" parent="QQYpSkaSlUF55Vdtk0ez-362" vertex="1">
          <mxGeometry x="240" width="110" height="30" as="geometry">
            <mxRectangle width="110" height="30" as="alternateBounds" />
          </mxGeometry>
        </mxCell>
        <mxCell id="QQYpSkaSlUF55Vdtk0ez-358" style="shape=tableRow;horizontal=0;startSize=0;swimlaneHead=0;swimlaneBody=0;fillColor=none;collapsible=0;dropTarget=0;points=[[0,0.5],[1,0.5]];portConstraint=eastwest;top=0;left=0;right=0;bottom=0;rounded=1;" parent="QQYpSkaSlUF55Vdtk0ez-131" vertex="1">
          <mxGeometry y="1070" width="350" height="30" as="geometry" />
        </mxCell>
        <mxCell id="QQYpSkaSlUF55Vdtk0ez-359" style="shape=partialRectangle;connectable=0;fillColor=none;top=1;left=0;bottom=0;right=0;editable=1;overflow=hidden;rounded=1;" parent="QQYpSkaSlUF55Vdtk0ez-358" vertex="1" visible="0">
          <mxGeometry width="130" height="30" as="geometry">
            <mxRectangle width="130" height="30" as="alternateBounds" />
          </mxGeometry>
        </mxCell>
        <mxCell id="QQYpSkaSlUF55Vdtk0ez-360" style="shape=partialRectangle;connectable=0;fillColor=none;top=0;left=0;bottom=0;right=0;align=center;spacingLeft=6;overflow=hidden;rounded=1;" parent="QQYpSkaSlUF55Vdtk0ez-358" vertex="1" visible="0">
          <mxGeometry x="130" width="110" height="30" as="geometry">
            <mxRectangle width="110" height="30" as="alternateBounds" />
          </mxGeometry>
        </mxCell>
        <mxCell id="QQYpSkaSlUF55Vdtk0ez-361" value="系统配置" style="shape=partialRectangle;connectable=0;fillColor=none;top=0;left=0;bottom=0;right=0;align=center;spacingLeft=6;overflow=hidden;rounded=1;" parent="QQYpSkaSlUF55Vdtk0ez-358" vertex="1">
          <mxGeometry x="240" width="110" height="30" as="geometry">
            <mxRectangle width="110" height="30" as="alternateBounds" />
          </mxGeometry>
        </mxCell>
        <mxCell id="QQYpSkaSlUF55Vdtk0ez-354" style="shape=tableRow;horizontal=0;startSize=0;swimlaneHead=0;swimlaneBody=0;fillColor=none;collapsible=0;dropTarget=0;points=[[0,0.5],[1,0.5]];portConstraint=eastwest;top=0;left=0;right=0;bottom=0;rounded=1;" parent="QQYpSkaSlUF55Vdtk0ez-131" vertex="1">
          <mxGeometry y="1100" width="350" height="30" as="geometry" />
        </mxCell>
        <mxCell id="QQYpSkaSlUF55Vdtk0ez-355" style="shape=partialRectangle;connectable=0;fillColor=none;top=1;left=0;bottom=0;right=0;editable=1;overflow=hidden;rounded=1;" parent="QQYpSkaSlUF55Vdtk0ez-354" vertex="1" visible="0">
          <mxGeometry width="130" height="30" as="geometry">
            <mxRectangle width="130" height="30" as="alternateBounds" />
          </mxGeometry>
        </mxCell>
        <mxCell id="QQYpSkaSlUF55Vdtk0ez-356" style="shape=partialRectangle;connectable=0;fillColor=none;top=0;left=0;bottom=0;right=0;align=center;spacingLeft=6;overflow=hidden;rounded=1;" parent="QQYpSkaSlUF55Vdtk0ez-354" vertex="1" visible="0">
          <mxGeometry x="130" width="110" height="30" as="geometry">
            <mxRectangle width="110" height="30" as="alternateBounds" />
          </mxGeometry>
        </mxCell>
        <mxCell id="QQYpSkaSlUF55Vdtk0ez-357" value="日志管理" style="shape=partialRectangle;connectable=0;fillColor=none;top=0;left=0;bottom=0;right=0;align=center;spacingLeft=6;overflow=hidden;rounded=1;" parent="QQYpSkaSlUF55Vdtk0ez-354" vertex="1">
          <mxGeometry x="240" width="110" height="30" as="geometry">
            <mxRectangle width="110" height="30" as="alternateBounds" />
          </mxGeometry>
        </mxCell>
        <mxCell id="QQYpSkaSlUF55Vdtk0ez-350" style="shape=tableRow;horizontal=0;startSize=0;swimlaneHead=0;swimlaneBody=0;fillColor=none;collapsible=0;dropTarget=0;points=[[0,0.5],[1,0.5]];portConstraint=eastwest;top=0;left=0;right=0;bottom=0;rounded=1;" parent="QQYpSkaSlUF55Vdtk0ez-131" vertex="1">
          <mxGeometry y="1130" width="350" height="30" as="geometry" />
        </mxCell>
        <mxCell id="QQYpSkaSlUF55Vdtk0ez-351" style="shape=partialRectangle;connectable=0;fillColor=none;top=1;left=0;bottom=0;right=0;editable=1;overflow=hidden;rounded=1;" parent="QQYpSkaSlUF55Vdtk0ez-350" vertex="1" visible="0">
          <mxGeometry width="130" height="30" as="geometry">
            <mxRectangle width="130" height="30" as="alternateBounds" />
          </mxGeometry>
        </mxCell>
        <mxCell id="QQYpSkaSlUF55Vdtk0ez-352" style="shape=partialRectangle;connectable=0;fillColor=none;top=0;left=0;bottom=0;right=0;align=center;spacingLeft=6;overflow=hidden;rounded=1;" parent="QQYpSkaSlUF55Vdtk0ez-350" vertex="1" visible="0">
          <mxGeometry x="130" width="110" height="30" as="geometry">
            <mxRectangle width="110" height="30" as="alternateBounds" />
          </mxGeometry>
        </mxCell>
        <mxCell id="QQYpSkaSlUF55Vdtk0ez-353" value="系统状态" style="shape=partialRectangle;connectable=0;fillColor=none;top=0;left=0;bottom=0;right=0;align=center;spacingLeft=6;overflow=hidden;rounded=1;" parent="QQYpSkaSlUF55Vdtk0ez-350" vertex="1">
          <mxGeometry x="240" width="110" height="30" as="geometry">
            <mxRectangle width="110" height="30" as="alternateBounds" />
          </mxGeometry>
        </mxCell>
        <mxCell id="QQYpSkaSlUF55Vdtk0ez-161" value="通知模块" style="swimlane;html=1;fontStyle=0;childLayout=stackLayout;horizontal=1;startSize=26;fillColor=#e0e0e0;horizontalStack=0;resizeParent=1;resizeLast=0;collapsible=1;marginBottom=0;swimlaneFillColor=#ffffff;align=center;rounded=1;shadow=0;comic=0;labelBackgroundColor=none;strokeWidth=1;fontFamily=Verdana;fontSize=12" parent="1" vertex="1">
          <mxGeometry x="605" y="435" width="140" height="52" as="geometry" />
        </mxCell>
        <mxCell id="QQYpSkaSlUF55Vdtk0ez-162" value="subscrip-server" style="text;html=1;strokeColor=none;fillColor=none;spacingLeft=4;spacingRight=4;whiteSpace=wrap;overflow=hidden;rotatable=0;points=[[0,0.5],[1,0.5]];portConstraint=eastwest;align=center;" parent="QQYpSkaSlUF55Vdtk0ez-161" vertex="1">
          <mxGeometry y="26" width="140" height="26" as="geometry" />
        </mxCell>
        <mxCell id="QQYpSkaSlUF55Vdtk0ez-170" value="集群缓存中间件" style="swimlane;html=1;fontStyle=0;childLayout=stackLayout;horizontal=1;startSize=26;fillColor=#e0e0e0;horizontalStack=0;resizeParent=1;resizeLast=0;collapsible=1;marginBottom=0;swimlaneFillColor=#ffffff;align=center;rounded=1;shadow=0;comic=0;labelBackgroundColor=none;strokeWidth=1;fontFamily=Verdana;fontSize=12" parent="1" vertex="1">
          <mxGeometry x="530" y="560" width="140" height="78" as="geometry" />
        </mxCell>
        <mxCell id="QQYpSkaSlUF55Vdtk0ez-171" value="Redis-node1" style="text;html=1;strokeColor=none;fillColor=none;spacingLeft=4;spacingRight=4;whiteSpace=wrap;overflow=hidden;rotatable=0;points=[[0,0.5],[1,0.5]];portConstraint=eastwest;align=center;" parent="QQYpSkaSlUF55Vdtk0ez-170" vertex="1">
          <mxGeometry y="26" width="140" height="26" as="geometry" />
        </mxCell>
        <mxCell id="QQYpSkaSlUF55Vdtk0ez-225" value="Redis-node2" style="text;html=1;strokeColor=none;fillColor=none;spacingLeft=4;spacingRight=4;whiteSpace=wrap;overflow=hidden;rotatable=0;points=[[0,0.5],[1,0.5]];portConstraint=eastwest;align=center;" parent="QQYpSkaSlUF55Vdtk0ez-170" vertex="1">
          <mxGeometry y="52" width="140" height="26" as="geometry" />
        </mxCell>
        <mxCell id="QQYpSkaSlUF55Vdtk0ez-172" value="集群消息中间件" style="swimlane;html=1;fontStyle=0;childLayout=stackLayout;horizontal=1;startSize=26;fillColor=#e0e0e0;horizontalStack=0;resizeParent=1;resizeLast=0;collapsible=1;marginBottom=0;swimlaneFillColor=#ffffff;align=center;rounded=1;shadow=0;comic=0;labelBackgroundColor=none;strokeWidth=1;fontFamily=Verdana;fontSize=12" parent="1" vertex="1">
          <mxGeometry x="680" y="560" width="140" height="78" as="geometry" />
        </mxCell>
        <mxCell id="QQYpSkaSlUF55Vdtk0ez-173" value="RabbitMQ-node1" style="text;html=1;strokeColor=none;fillColor=none;spacingLeft=4;spacingRight=4;whiteSpace=wrap;overflow=hidden;rotatable=0;points=[[0,0.5],[1,0.5]];portConstraint=eastwest;align=center;" parent="QQYpSkaSlUF55Vdtk0ez-172" vertex="1">
          <mxGeometry y="26" width="140" height="26" as="geometry" />
        </mxCell>
        <mxCell id="QQYpSkaSlUF55Vdtk0ez-226" value="RabbitMQ-node2" style="text;html=1;strokeColor=none;fillColor=none;spacingLeft=4;spacingRight=4;whiteSpace=wrap;overflow=hidden;rotatable=0;points=[[0,0.5],[1,0.5]];portConstraint=eastwest;align=center;" parent="QQYpSkaSlUF55Vdtk0ez-172" vertex="1">
          <mxGeometry y="52" width="140" height="26" as="geometry" />
        </mxCell>
        <mxCell id="QQYpSkaSlUF55Vdtk0ez-182" style="edgeStyle=orthogonalEdgeStyle;rounded=0;orthogonalLoop=1;jettySize=auto;html=1;entryX=-0.007;entryY=0.183;entryDx=0;entryDy=0;entryPerimeter=0;" parent="1" source="QQYpSkaSlUF55Vdtk0ez-180" target="QQYpSkaSlUF55Vdtk0ez-123" edge="1">
          <mxGeometry relative="1" as="geometry">
            <Array as="points">
              <mxPoint x="160" y="805" />
              <mxPoint x="160" y="831" />
            </Array>
          </mxGeometry>
        </mxCell>
        <mxCell id="QQYpSkaSlUF55Vdtk0ez-180" value="运维" style="shape=umlActor;verticalLabelPosition=bottom;verticalAlign=top;html=1;rounded=1;fillColor=#E0E0E0;" parent="1" vertex="1">
          <mxGeometry x="60" y="775" width="30" height="60" as="geometry" />
        </mxCell>
        <mxCell id="QQYpSkaSlUF55Vdtk0ez-183" style="edgeStyle=orthogonalEdgeStyle;rounded=0;orthogonalLoop=1;jettySize=auto;html=1;entryX=-0.01;entryY=0.822;entryDx=0;entryDy=0;entryPerimeter=0;" parent="1" source="QQYpSkaSlUF55Vdtk0ez-181" target="QQYpSkaSlUF55Vdtk0ez-123" edge="1">
          <mxGeometry relative="1" as="geometry">
            <Array as="points">
              <mxPoint x="170" y="895" />
              <mxPoint x="170" y="850" />
            </Array>
          </mxGeometry>
        </mxCell>
        <mxCell id="QQYpSkaSlUF55Vdtk0ez-181" value="系统管理员" style="shape=umlActor;verticalLabelPosition=bottom;verticalAlign=top;html=1;rounded=1;fillColor=#E0E0E0;" parent="1" vertex="1">
          <mxGeometry x="60" y="865" width="30" height="60" as="geometry" />
        </mxCell>
        <mxCell id="QQYpSkaSlUF55Vdtk0ez-243" style="edgeStyle=orthogonalEdgeStyle;rounded=0;orthogonalLoop=1;jettySize=auto;html=1;entryX=0.003;entryY=0.322;entryDx=0;entryDy=0;entryPerimeter=0;" parent="1" source="QQYpSkaSlUF55Vdtk0ez-120" target="QQYpSkaSlUF55Vdtk0ez-138" edge="1">
          <mxGeometry relative="1" as="geometry">
            <mxPoint x="730" y="810" as="targetPoint" />
          </mxGeometry>
        </mxCell>
        <mxCell id="o8AClozSgffJ_XpUh-Xn-1" value="" style="rounded=0;whiteSpace=wrap;html=1;" vertex="1" parent="1">
          <mxGeometry x="230" y="435" width="120" height="60" as="geometry" />
        </mxCell>
      </root>
    </mxGraphModel>
  </diagram>
</mxfile>
